<svg width="42" height="42" viewBox="0 0 42 42" fill="none" xmlns="http://www.w3.org/2000/svg">
<path d="M32.8847 19.2588H13.3372L21.8772 10.7188C22.5597 10.0363 22.5597 8.91627 21.8772 8.23377C21.5502 7.90608 21.1063 7.72192 20.6434 7.72192C20.1805 7.72192 19.7366 7.90608 19.4097 8.23377L7.87717 19.7663C7.19467 20.4488 7.19467 21.5513 7.87717 22.2338L19.4097 33.7663C20.0922 34.4488 21.1947 34.4488 21.8772 33.7663C22.5597 33.0838 22.5597 31.9813 21.8772 31.2988L13.3372 22.7588H32.8847C33.8472 22.7588 34.6347 21.9713 34.6347 21.0088C34.6347 20.0463 33.8472 19.2588 32.8847 19.2588Z" fill="#F58634"/>
</svg>
