<svg width="24" height="22" viewBox="0 0 24 22" fill="none" xmlns="http://www.w3.org/2000/svg">
<path d="M2.37907 12.4166H18.2032L11.2899 19.3299C10.7374 19.8824 10.7374 20.7891 11.2899 21.3416C11.8424 21.8941 12.7349 21.8941 13.2874 21.3416L22.6232 12.0058C23.1757 11.4533 23.1757 10.5608 22.6232 10.0083L13.3016 0.658251C13.0369 0.392976 12.6776 0.243896 12.3028 0.243896C11.9281 0.243896 11.5687 0.392976 11.3041 0.658251C10.7516 1.21075 10.7516 2.10325 11.3041 2.65575L18.2032 9.58325H2.37907C1.5999 9.58325 0.962402 10.2208 0.962402 10.9999C0.962402 11.7791 1.5999 12.4166 2.37907 12.4166Z" fill="#DAE3EA"/>
</svg>
