<svg width="42" height="42" viewBox="0 0 42 42" fill="none" xmlns="http://www.w3.org/2000/svg">
<path d="M9.1153 22.75H28.6628L20.1228 31.29C19.4403 31.9725 19.4403 33.0925 20.1228 33.775C20.8053 34.4575 21.9078 34.4575 22.5903 33.775L34.1228 22.2425C34.8053 21.56 34.8053 20.4575 34.1228 19.775L22.6078 8.22498C22.2808 7.89729 21.837 7.71313 21.374 7.71313C20.9111 7.71313 20.4673 7.89729 20.1403 8.22498C19.4578 8.90748 19.4578 10.01 20.1403 10.6925L28.6628 19.25H9.1153C8.1528 19.25 7.3653 20.0375 7.3653 21C7.3653 21.9625 8.1528 22.75 9.1153 22.75Z" fill="#F58634"/>
</svg>
