<svg width="68" height="49" viewBox="0 0 68 49" fill="none" xmlns="http://www.w3.org/2000/svg">
<path d="M66.6819 4.07748C66.6775 4.07748 66.673 4.07748 66.6687 4.07748H62.2004V2.54185C62.2245 1.93405 61.833 1.38781 61.2514 1.21803C58.1493 0.401562 54.9549 -0.00782954 51.748 0.000113389C46.4757 0.000113389 39.2921 1.19155 33.9802 6.61922C28.7079 1.1386 21.4716 0.000113389 16.2124 0.000113389C13.0055 -0.00782954 9.81117 0.401562 6.70905 1.21803C6.12745 1.38781 5.73598 1.93405 5.76003 2.54185V4.06425H1.31808C0.590173 4.06425 0 4.65699 0 5.38807V47.6709C0 48.402 0.590173 48.9947 1.31808 48.9947C1.54447 48.9941 1.76689 48.9348 1.96395 48.8227C2.09576 48.7565 15.2766 41.5152 33.6771 46.175H33.8748H33.9934C34.0985 46.1877 34.2046 46.1877 34.3098 46.175C52.7629 41.4754 65.9438 48.7035 66.0229 48.8227C66.4307 49.0591 66.9332 49.0591 67.341 48.8227C67.7463 48.5877 67.9972 48.1543 68 47.6842V5.40131C68 4.67022 67.41 4.07748 66.6819 4.07748ZM2.63617 45.5661V6.72513H5.78639V39.9266C5.77815 40.6577 6.36157 41.257 7.08948 41.2653C7.16066 41.2661 7.23184 41.2612 7.30219 41.2504C10.029 40.8322 12.782 40.611 15.5402 40.5885C19.361 40.522 23.1658 41.0991 26.7967 42.2962C18.5974 41.3004 10.2806 42.4259 2.63617 45.5661ZM15.5402 37.9541C13.1428 37.9595 10.7482 38.1143 8.36984 38.4174V3.58767C10.9362 3.01346 13.5568 2.7204 16.1861 2.71395C21.1157 2.71395 27.917 3.85243 32.6358 9.20067L32.6753 42.1771C29.9337 40.3767 24.5823 37.9541 15.5402 37.9541ZM35.3115 9.20067C40.0302 3.90539 46.8316 2.71395 51.7612 2.71395C54.3903 2.72173 57.011 3.01462 59.5774 3.58767V38.4174C57.2125 38.1114 54.831 37.9523 52.4466 37.9408C43.4573 37.9408 38.0927 40.3634 35.3115 42.1638V9.20067V9.20067ZM65.3507 45.5661C57.6899 42.4173 49.354 41.2916 41.1374 42.2962C44.7854 41.0948 48.6083 40.5175 52.4466 40.5885C55.2222 40.604 57.9929 40.8208 60.7374 41.2372C61.457 41.3469 62.1291 40.8498 62.2383 40.127C62.249 40.0563 62.254 39.9848 62.2532 39.9133V6.72513H65.4034L65.3507 45.5661Z" fill="black"/>
</svg>
