<?xml version="1.0" encoding="utf-8"?>
<!-- Generator: Adobe Illustrator 19.0.0, SVG Export Plug-In . SVG Version: 6.00 Build 0)  -->
<svg version="1.1" id="Layer_2" xmlns="http://www.w3.org/2000/svg" xmlns:xlink="http://www.w3.org/1999/xlink" x="0px" y="0px"
	 viewBox="0 0 280 234" style="enable-background:new 0 0 280 234;" xml:space="preserve">
<style type="text/css">
	.st0{fill:#EF8336;}
	.st1{fill:none;stroke:#000000;stroke-width:0.25;stroke-miterlimit:10;}
	.st2{fill:#A29071;}
	.st3{fill:#A58F72;}
	.st4{fill:none;stroke:#000000;stroke-linecap:round;stroke-linejoin:round;}
	.st5{fill:#FFFFFF;}
	.st6{fill:#A58D71;}
	.st7{fill:none;stroke:#000000;stroke-width:0.25;stroke-linecap:round;stroke-linejoin:round;}
	.st8{fill:none;stroke:#000000;stroke-width:0.5;stroke-linecap:round;stroke-linejoin:round;}
	.st9{fill:#FFFFFF;stroke:#000000;stroke-width:0.25;stroke-miterlimit:10;}
</style>
<g id="XMLID_314_">
	<g id="XMLID_286_">
		<g id="XMLID_53_">
			<path id="XMLID_60_" d="M268.9,180.3c0,0.3,0,0.5,0.1,0.8c-0.7,0.1-1.4,0.3-2.2,0.4c-12.5,1.1-24.3,4.7-35.3,10.9
				c-6.8,3.9-13.9,6.1-21.8,4.1c-6-1.5-10.5-5.3-14.5-9.7c-0.7-0.7-1.3-1.5-2.2-2.6c-12.5,14-27.6,22.7-46.8,22.7
				c-19.2,0-34.3-8.7-46.6-22.4c-3.5,3.1-6.5,6.4-10.1,8.8c-8.9,5.9-18.1,4.9-27-0.1c-10.3-5.8-21.1-9.7-32.8-11.4
				c-0.7-0.1-1.3-1-1.9-1.5c0.1-0.4,0.3-0.8,0.5-1.2c6.4,0.3,12.8,0.5,19.1,0.8c-6-2.5-12.5-2.5-19.1-2.6c-0.1-0.2-0.3-0.4-0.4-0.7
				c0.6-0.5,1.1-1.2,1.7-1.3c12.6-2,24.5-0.5,35.5,6.5c7.3,4.7,13.4,4,19.5-2.2c2-2,3.4-4.5,5.3-6.6c1-1.2,2.1-2.4,3.4-3
				c4.2-2.1,8.6-4,12.9-6c19.8,31.5,59.5,31.5,80.1,0c4.8,2.2,9.4,4.3,13.9,6.5c0.9,0.4,1.5,1.4,2.2,2.2c2.5,2.9,4.6,6.2,7.4,8.7
				c5.3,4.7,10.9,4.9,16.8,1c12.9-8.7,27-9,41.6-6.2c0.3,0.1,0.6,0.4,0.9,0.9c-8.2,0.4-16.6-0.3-24.3,3.2
				C252.8,179,260.9,178.7,268.9,180.3z M255.8,181c-8.3,0-16.2,2-24.1,4.4c-0.1-0.3-0.2-0.6-0.3-0.8c6.9-2.9,13.8-5.8,20.4-8.7
				c-10.8-0.1-20,4.8-29.2,10.4c0.5,0.2,0.8,0.3,1.3,0.5c-0.9,0.6-1.6,1.2-2.8,2.1c1.3-0.2,2-0.3,3.3-0.4c-1.2,0.9-2,1.5-2.9,2.2
				c0.7,0.2,1.1,0.3,1.6,0.5c-0.6,0.4-1.1,0.7-1.7,1.1c0.6,0.2,1,0.3,1.5,0.5c-1.2,0.6-2.1,1.2-3.1,1.7c0.1,0.3,0.2,0.5,0.3,0.8
				c2.2-0.8,4.4-1.2,6.4-2.3C235.9,188,245.4,183.4,255.8,181z M218.6,192.2c0-0.1,0-0.3-0.1-0.4c-0.9-0.1-1.8-0.2-3.1-0.4
				c1.3-0.4,2.2-0.6,3.1-0.9c0-0.1,0-0.2-0.1-0.3c-0.7-0.1-1.5-0.2-2.8-0.4c1.2-0.4,1.8-0.7,2.6-1c-0.7-0.3-1.3-0.6-2.2-1
				c0.6-0.2,0.9-0.3,1.2-0.4c0.3-0.2,0.6-0.4,1.3-0.8c-7.4-0.6-11.7-5.2-15.5-10.2c-1,0.8-1.7,1.5-2.6,2.3c0.3,0.7,0.8,1.7,1.5,3.2
				c-1-0.7-1.5-1-2.6-1.7c0.9,1.7,1.5,2.9,2.4,4.7c-1.3-0.9-2-1.4-2.7-1.9c-0.1,0.1-0.2,0.2-0.4,0.3c1.2,1.7,2.4,3.3,3.6,5
				c-0.1,0.1-0.2,0.2-0.3,0.3c-1.2-0.9-2.4-1.8-4.2-3c0.7,1.2,1,1.8,1.4,2.4c2.6,3.6,6.1,6.2,10.5,7.2c2.6,0.6,5.3,1.1,7.4-1.3
				c-0.4-0.2-0.8-0.3-1.6-0.6C216.8,192.7,217.7,192.4,218.6,192.2z M199.2,172c-4.2-1.9-8.4-3.8-12.7-5.8
				c-10,13.9-22.8,23-40.3,22.9c-17.4-0.1-30.3-9-40.1-22.9c-4.4,2.1-8.6,4-12.9,5.9c10.6,18.8,30.2,34.4,57.1,32.8
				C172.5,203.5,190.8,188.3,199.2,172z M94.1,185.9c-1.2,0.9-2.4,1.7-3.6,2.6c-0.1-0.1-0.1-0.2-0.2-0.3c1.2-1.7,2.5-3.4,3.7-5.1
				c-0.1-0.1-0.2-0.2-0.3-0.2c-0.8,0.5-1.6,1-2.8,1.8c0.9-1.8,1.5-3,2.5-4.8c-1.1,0.8-1.6,1.2-2.1,1.6c-0.1-0.1-0.2-0.2-0.3-0.3
				c0.2-0.4,0.3-0.8,0.6-1.1c0.9-1.2,0.6-2.2-0.5-2.9c-1-0.6-2-0.4-2.9,0.8c-3.5,4.7-7.8,8-14.6,8.6c1.3,0.6,2,0.8,2.8,1.2
				c-0.8,0.4-1.3,0.6-2,0.9c0.7,0.3,1.4,0.6,2.4,1.1c-1.2,0.2-1.9,0.2-2.6,0.3c0,0.1,0,0.2-0.1,0.4c0.9,0.3,1.8,0.5,3,0.8
				c-1.2,0.2-2.1,0.3-3,0.5c0,0.2,0,0.3,0,0.5c0.8,0.2,1.7,0.4,2.9,0.8c-0.7,0.3-1.1,0.5-1.5,0.7c3.4,3.1,7,1.5,10.5,0.2
				C89.9,192.4,93.4,188.8,94.1,185.9z M72.3,195.3c0.1-0.3,0.2-0.6,0.3-0.8c-0.9-0.5-1.8-1-2.9-1.6c0.5-0.3,0.9-0.4,1.4-0.7
				c-0.6-0.4-1.1-0.7-1.6-1c0.5-0.2,0.9-0.4,1.4-0.6c-0.9-0.7-1.7-1.2-2.9-2.1c1.3,0.2,2.1,0.3,3.4,0.4c-1.3-0.9-2-1.5-3.3-2.4
				c1.1,0.1,1.7,0.1,2.8,0.3c-9.9-5.8-19.2-11.2-30.2-10.9c6.6,2.8,13.5,5.7,20.3,8.7c-0.1,0.3-0.2,0.5-0.3,0.8
				c-7.8-2.4-15.7-4.5-24.1-4.2c0.9,0.2,1.7,0.4,2.5,0.6c9.4,2.3,17.9,6.6,26.4,11C67.7,194,70.1,194.5,72.3,195.3z"/>
			<path id="XMLID_59_" d="M231.7,185.4c7.8-2.4,15.8-4.5,24.1-4.4c-10.4,2.4-19.9,7-29.2,12c-2,1.1-4.3,1.5-6.4,2.3
				c-0.1-0.3-0.2-0.5-0.3-0.8c0.9-0.5,1.9-1,3.1-1.7c-0.6-0.2-0.9-0.3-1.5-0.5c0.6-0.4,1.1-0.7,1.7-1.1c-0.5-0.1-0.9-0.3-1.6-0.5
				c0.9-0.7,1.8-1.3,2.9-2.2c-1.3,0.2-2,0.3-3.3,0.4c1.2-0.9,1.9-1.5,2.8-2.1c-0.5-0.2-0.9-0.3-1.3-0.5c9.2-5.7,18.5-10.6,29.2-10.4
				c-6.7,2.8-13.5,5.8-20.4,8.7C231.5,184.9,231.6,185.2,231.7,185.4z"/>
			<path id="XMLID_58_" d="M218.5,191.8c0,0.1,0,0.3,0.1,0.4c-0.9,0.3-1.8,0.5-3.1,0.9c0.7,0.3,1.1,0.4,1.6,0.6
				c-2.1,2.4-4.8,1.9-7.4,1.3c-4.4-1-7.8-3.5-10.5-7.2c-0.4-0.6-0.7-1.2-1.4-2.4c1.7,1.3,2.9,2.1,4.2,3c0.1-0.1,0.2-0.2,0.3-0.3
				c-1.2-1.7-2.4-3.3-3.6-5c0.1-0.1,0.2-0.2,0.4-0.3c0.7,0.5,1.4,1,2.7,1.9c-0.9-1.7-1.5-2.9-2.4-4.7c1.1,0.7,1.6,1.1,2.6,1.7
				c-0.7-1.5-1.2-2.5-1.5-3.2c0.9-0.8,1.7-1.4,2.6-2.3c3.8,5,8.1,9.6,15.5,10.2c-0.7,0.4-1,0.7-1.3,0.8c-0.3,0.1-0.6,0.2-1.2,0.4
				c0.9,0.4,1.5,0.6,2.2,1c-0.8,0.3-1.4,0.5-2.6,1c1.3,0.2,2.1,0.3,2.8,0.4c0,0.1,0,0.2,0.1,0.3c-0.9,0.3-1.8,0.5-3.1,0.9
				C216.7,191.5,217.6,191.6,218.5,191.8z"/>
			<path id="XMLID_57_" class="st0" d="M186.5,166.2c4.3,2,8.5,3.9,12.7,5.8c-8.3,16.3-26.7,31.5-48.8,32.9
				c-26.9,1.6-46.5-14-57.1-32.8c4.2-1.9,8.4-3.9,12.9-5.9c9.7,13.9,22.6,22.8,40.1,22.9C163.6,189.1,176.5,180.1,186.5,166.2z"/>
			<path id="XMLID_56_" d="M90.5,188.5c1.2-0.9,2.4-1.7,3.6-2.6c-0.7,2.8-4.2,6.5-8.2,8.1c-3.4,1.3-7,2.9-10.5-0.2
				c0.4-0.2,0.8-0.4,1.5-0.7c-1.2-0.3-2-0.5-2.9-0.8c0-0.2,0-0.3,0-0.5c0.9-0.2,1.9-0.3,3-0.5c-1.2-0.3-2.1-0.6-3-0.8
				c0-0.1,0-0.2,0.1-0.4c0.7-0.1,1.4-0.2,2.6-0.3c-1-0.4-1.6-0.7-2.4-1.1c0.7-0.3,1.2-0.6,2-0.9c-0.8-0.3-1.5-0.6-2.8-1.2
				c6.7-0.6,11.1-4,14.6-8.6c0.9-1.2,1.9-1.4,2.9-0.8c1.1,0.6,1.4,1.7,0.5,2.9c-0.3,0.3-0.4,0.7-0.6,1.1c0.1,0.1,0.2,0.2,0.3,0.3
				c0.5-0.4,1-0.8,2.1-1.6c-0.9,1.8-1.6,3-2.5,4.8c1.3-0.8,2.1-1.3,2.8-1.8c0.1,0.1,0.2,0.2,0.3,0.2c-1.2,1.7-2.5,3.4-3.7,5.1
				C90.4,188.3,90.4,188.4,90.5,188.5z"/>
			<path id="XMLID_55_" d="M72.6,194.4c-0.1,0.3-0.2,0.6-0.3,0.8c-2.2-0.8-4.6-1.3-6.7-2.4c-8.5-4.5-17-8.8-26.4-11
				c-0.8-0.2-1.7-0.4-2.5-0.6c8.3-0.3,16.2,1.8,24.1,4.2c0.1-0.3,0.2-0.5,0.3-0.8c-6.9-2.9-13.7-5.9-20.3-8.7
				c11-0.3,20.4,5.1,30.2,10.9c-1.1-0.1-1.7-0.2-2.8-0.3c1.3,0.9,2.1,1.5,3.3,2.4c-1.3-0.2-2.1-0.3-3.4-0.4c1.2,0.9,1.9,1.4,2.9,2.1
				c-0.5,0.2-0.9,0.4-1.4,0.6c0.5,0.3,1,0.6,1.6,1c-0.5,0.2-0.9,0.4-1.4,0.7C70.8,193.5,71.7,194,72.6,194.4z"/>
		</g>
		<g id="XMLID_54_">
			<path id="XMLID_162_" class="st1" d="M186.3,164c4.8,2.2,9.4,4.3,13.9,6.5c0.9,0.4,1.5,1.4,2.2,2.2c2.5,2.9,4.6,6.2,7.4,8.7
				c5.3,4.7,10.9,4.9,16.8,1c12.9-8.7,27-9,41.6-6.2c0.3,0.1,0.6,0.4,0.9,0.9c-8.2,0.4-16.6-0.3-24.3,3.2c8.1-1.3,16.2-1.5,24.2,0
				c0,0.3,0,0.5,0.1,0.8c-0.7,0.1-1.4,0.3-2.2,0.4c-12.5,1.1-24.3,4.7-35.3,10.9c-6.8,3.9-13.9,6.1-21.8,4.1
				c-6-1.5-10.5-5.3-14.5-9.7c-0.7-0.7-1.3-1.5-2.2-2.6c-12.5,14-27.6,22.7-46.8,22.7c-19.2,0-34.3-8.7-46.6-22.4
				c-3.5,3.1-6.5,6.4-10.1,8.8c-8.9,5.9-18.1,4.9-27-0.1c-10.3-5.8-21.1-9.7-32.8-11.4c-0.7-0.1-1.3-1-1.9-1.5
				c0.1-0.4,0.3-0.8,0.5-1.2c6.4,0.3,12.8,0.5,19.1,0.8c-6-2.5-12.5-2.5-19.1-2.6c-0.1-0.2-0.3-0.4-0.4-0.7c0.6-0.5,1.1-1.2,1.7-1.3
				c12.6-2,24.5-0.5,35.5,6.5c7.3,4.7,13.4,4,19.5-2.2c2-2,3.4-4.5,5.3-6.6c1-1.2,2.1-2.4,3.4-3c4.2-2.1,8.6-4,12.9-6
				C125.9,195.5,165.7,195.5,186.3,164z"/>
			<path id="XMLID_161_" class="st1" d="M93.2,172.1c10.6,18.8,30.2,34.4,57.1,32.8c22.2-1.3,40.5-16.6,48.8-32.9
				c-4.2-1.9-8.4-3.8-12.7-5.8c-10,13.9-22.8,23-40.3,22.9c-17.4-0.1-30.3-9-40.1-22.9C101.6,168.2,97.4,170.1,93.2,172.1z"/>
			<path id="XMLID_160_" class="st1" d="M215.4,191.3c1.3-0.4,2.2-0.6,3.1-0.9c0-0.1,0-0.2-0.1-0.3c-0.7-0.1-1.5-0.2-2.8-0.4
				c1.2-0.4,1.8-0.7,2.6-1c-0.7-0.3-1.3-0.6-2.2-1c0.6-0.2,0.9-0.3,1.2-0.4c0.3-0.2,0.6-0.4,1.3-0.8c-7.4-0.6-11.7-5.2-15.5-10.2
				c-1,0.8-1.7,1.5-2.6,2.3c0.3,0.7,0.8,1.7,1.5,3.2c-1-0.7-1.5-1-2.6-1.7c0.9,1.7,1.5,2.9,2.4,4.7c-1.3-0.9-2-1.4-2.7-1.9
				c-0.1,0.1-0.2,0.2-0.4,0.3c1.2,1.7,2.4,3.3,3.6,5c-0.1,0.1-0.2,0.2-0.3,0.3c-1.2-0.9-2.4-1.8-4.2-3c0.7,1.2,1,1.8,1.4,2.4
				c2.6,3.6,6.1,6.2,10.5,7.2c2.6,0.6,5.3,1.1,7.4-1.3c-0.4-0.2-0.8-0.3-1.6-0.6c1.3-0.4,2.2-0.6,3.1-0.9c0-0.1,0-0.3-0.1-0.4
				C217.6,191.6,216.7,191.5,215.4,191.3z"/>
			<path id="XMLID_159_" class="st1" d="M91.2,181.5c-0.1-0.1-0.2-0.2-0.3-0.3c0.2-0.4,0.3-0.8,0.6-1.1c0.9-1.2,0.6-2.2-0.5-2.9
				c-1-0.6-2-0.4-2.9,0.8c-3.5,4.7-7.8,8-14.6,8.6c1.3,0.6,2,0.8,2.8,1.2c-0.8,0.4-1.3,0.6-2,0.9c0.7,0.3,1.4,0.6,2.4,1.1
				c-1.2,0.2-1.9,0.2-2.6,0.3c0,0.1,0,0.2-0.1,0.4c0.9,0.3,1.8,0.5,3,0.8c-1.2,0.2-2.1,0.3-3,0.5c0,0.2,0,0.3,0,0.5
				c0.8,0.2,1.7,0.4,2.9,0.8c-0.7,0.3-1.1,0.5-1.5,0.7c3.4,3.1,7,1.5,10.5,0.2c4-1.6,7.5-5.2,8.2-8.1c-1.2,0.9-2.4,1.7-3.6,2.6
				c-0.1-0.1-0.1-0.2-0.2-0.3c1.2-1.7,2.5-3.4,3.7-5.1c-0.1-0.1-0.2-0.2-0.3-0.2c-0.8,0.5-1.6,1-2.8,1.8c0.9-1.8,1.5-3,2.5-4.8
				C92.2,180.7,91.7,181.1,91.2,181.5z"/>
			<path id="XMLID_158_" class="st1" d="M36.7,181.2c0.9,0.2,1.7,0.4,2.5,0.6c9.4,2.3,17.9,6.6,26.4,11c2.1,1.1,4.4,1.6,6.7,2.4
				c0.1-0.3,0.2-0.6,0.3-0.8c-0.9-0.5-1.8-1-2.9-1.6c0.5-0.3,0.9-0.4,1.4-0.7c-0.6-0.4-1.1-0.7-1.6-1c0.5-0.2,0.9-0.4,1.4-0.6
				c-0.9-0.7-1.7-1.2-2.9-2.1c1.3,0.2,2.1,0.3,3.4,0.4c-1.3-0.9-2-1.5-3.3-2.4c1.1,0.1,1.7,0.1,2.8,0.3
				c-9.9-5.8-19.2-11.2-30.2-10.9c6.6,2.8,13.5,5.7,20.3,8.7c-0.1,0.3-0.2,0.5-0.3,0.8C52.9,183.1,45,181,36.7,181.2z"/>
			<path id="XMLID_157_" class="st1" d="M255.8,181c-8.3,0-16.2,2-24.1,4.4c-0.1-0.3-0.2-0.6-0.3-0.8c6.9-2.9,13.8-5.8,20.4-8.7
				c-10.8-0.1-20,4.8-29.2,10.4c0.5,0.2,0.8,0.3,1.3,0.5c-0.9,0.6-1.6,1.2-2.8,2.1c1.3-0.2,2-0.3,3.3-0.4c-1.2,0.9-2,1.5-2.9,2.2
				c0.7,0.2,1.1,0.3,1.6,0.5c-0.6,0.4-1.1,0.7-1.7,1.1c0.6,0.2,1,0.3,1.5,0.5c-1.2,0.6-2.1,1.2-3.1,1.7c0.1,0.3,0.2,0.5,0.3,0.8
				c2.2-0.8,4.4-1.2,6.4-2.3C235.9,188,245.4,183.4,255.8,181z"/>
		</g>
	</g>
	<g id="XMLID_271_">
		<g id="XMLID_43_">
			<path id="XMLID_50_" d="M235.2,73.2c0,0-0.1,0.1-0.2,0.3c-0.1,0.1-0.1,0.1-0.2,0.2c0.1-0.1,0.1-0.2,0.2-0.2
				C235.1,73.3,235.1,73.2,235.2,73.2z M195.9,139.5c-3.8-9.6-1.6-13.8-1.6-13.8c-0.1,11.1,3.3,13.3,3.3,13.3
				c-0.1-0.8-0.1-4.3-0.1-5.5c0.1-1.2-0.9-9.4-0.9-9.4c1.6,1.6,2.6,6.8,2.6,6.8c4.2,4.8,10.6,4.1,10.6,4.1
				c-9.8-5.1-11.3-11.4-11.4-11.8c5.6,8.1,12.1,10.2,12.1,10.2c-2.1-2.2-2.4-4.3-3.6-7.2c-1.1-2.9-5.9-7.9-5.9-7.9
				c3.3,0.4,7.3,6.2,7.3,6.2c4.1,2.2,10.2,2.4,10.2,2.4c-10.7-4.4-11.6-8.8-11.6-8.8c6.9,6.8,14.1,7.4,14.1,7.4
				c-9.4-10.1-15.4-10.8-15.4-10.8c3.8-2.3,10.9,3,10.9,3c3.1-0.2,9.7-5.3,9.7-5.3c-12.3,2.2-17.7-1.6-17.7-1.6
				c10.4,2,19.2-1.3,19.2-1.3c-3.4-0.7-19.3-1.6-19.3-1.6c1.4-2.4,13.7-2.2,13.7-2.2c7.1-2.2,14.8-11.4,14.8-11.4
				c-11.2,8.4-22.6,8-22.6,8c13.3-2.3,21.4-9.8,21.4-9.8c-8.3,4.3-10.7,3.9-10.7,3.9c-7.6,0.7-17.9,6.7-17.9,6.7
				c4.3-7.2,17.2-8.9,17.2-8.9c10.2-12,12.4-19.6,12.5-20.1c-10.3,13.2-18.2,13.9-18.2,13.9c7.1-2.7,14.3-11.9,16.2-14.4
				c-1.1,1.3-3.4,3.1-5.4,4.7l-0.8-1c8.6-6.1,14.3-21.9,14.3-21.9c1,18.7-15.1,37.8-15.1,37.8c4.5,0.8,17.5-10.1,17.5-10.1
				c-5.4,16.6-20.9,24.1-20.9,24.1c1.1,0.7,10.7,0.6,10.7,0.6c-7,8.9-16.9,11.9-16.9,11.9c2.6,3.6,12.1,8.5,12.1,8.5
				c-7.1,2.9-19.4-0.4-19.4-0.4c-1.7,3.6,8.1,10.9,8.1,10.9c-7.5,1.6-19-4.4-19.3-4.7c-0.3-0.3,0.3,10.4,0.3,10.4
				c-7.1-2.9-11.6-8.6-11.6-8.6c-1.6,0.4-1.3,9.3-1.3,9.3c-2.2-1.3-5.1-5.3-6.3-7.6l0.1-0.1c-1.2-2.2,0.9-6.3,1.1-6.8l-3.5,4.9
				l0.2-1.6c2.6-1.4,5.6-7.9,5.6-7.9c1.1,1.9-1.4,4.9-1.4,4.9c-1.8,4.9,1.4,8.3,1.4,8.3c-1.1-9.9,3.6-12.8,3.9-12.9
				c-3.6,5.9-2.1,10.2-2.1,10.2c0.4-2.4,1.6-3.4,1.6-3.4c3.4-3.9,4.3-7.6,4.3-7.9c0.8,4-1.7,6.6-1.7,6.6
				C191.5,137.5,195.6,139.4,195.9,139.5z"/>
			<path id="XMLID_49_" class="st2" d="M187.9,126.6c-0.3,0.2-5,3-3.9,12.9c0,0-3.1-3.4-1.4-8.3c0,0,2.5-3,1.4-4.9
				c0,0-3,6.5-5.6,7.9l-0.2,1.6l-0.8,1.2v-10.7l1.1-0.8l0.1,0.6c0,0,25.5-8.4,24.1-25.1c-1.4-16.6-13.6-19.4-23.8-19.1
				c0,0,6.9-4,7.8-6.6c0,0,4.4,3.9,8.8,0.6c4.2-3.1,5.2-5.6,5.6-6.6l2.4,0.1c-1.6,4.6-0.2,10.2-0.2,10.2s1.6-14.1,7-18.1
				c5.4-4,5.8-19.7,5.8-19.7s1.6,14.9-3.3,23.2c0,0,6.4-5.2,5.1-26c0,0,4,8.4-0.6,29.4l-0.1,0.7c0,0-12.2,10.1-9.2,16.8
				c0,0,4.9-11.3,10.7-15c5.8-3.7,8.5-14.4,8.5-14.4s-0.9,11.9-8.5,20.5c0.6-0.5,8.5-7.9,10.2-16.4c-0.6,4.8-2.1,13.5-6.1,20
				c0,0-12,5.3-12.3,13.9c0,0,5.7-8.4,14.8-13.4c0,0,1.9-1.3,4-2.8c2-1.5,4.3-3.4,5.4-4.7c-1.8,2.5-9.1,11.7-16.2,14.4
				c0,0,7.9-0.7,18.2-13.9c-0.1,0.5-2.3,8.1-12.5,20.1c0,0-12.9,1.7-17.2,8.9c0,0,10.3-6,17.9-6.7c0,0,2.4,0.4,10.7-3.9
				c0,0-8.2,7.4-21.4,9.8c0,0,11.4,0.4,22.6-8c0,0-7.8,9.2-14.8,11.4c0,0-12.3-0.2-13.7,2.2c0,0,15.9,0.9,19.3,1.6
				c0,0-8.8,3.3-19.2,1.3c0,0,5.4,3.8,17.7,1.6c0,0-6.7,5.1-9.7,5.3c0,0-7.1-5.3-10.9-3c0,0,6,0.7,15.4,10.8c0,0-7.3-0.7-14.1-7.4
				c0,0,0.9,4.4,11.6,8.8c0,0-6.1-0.3-10.2-2.4c0,0-4-5.8-7.3-6.2c0,0,4.8,5,5.9,7.9c1.1,2.9,1.4,5.1,3.6,7.2c0,0-6.4-2.1-12.1-10.2
				c0.1,0.4,1.7,6.6,11.4,11.8c0,0-6.4,0.6-10.6-4.1c0,0-1-5.3-2.6-6.8c0,0,0.9,8.2,0.9,9.4c-0.1,1.2,0,4.8,0.1,5.5
				c0,0-3.4-2.3-3.3-13.3c0,0-2.2,4.3,1.6,13.8c-0.3-0.1-4.4-2-5.8-7.4c0,0,2.4-2.6,1.7-6.6c-0.1,0.3-0.9,4-4.3,7.9
				c0,0-1.3,1.1-1.6,3.4C185.8,136.8,184.4,132.5,187.9,126.6z"/>
			<path id="XMLID_48_" d="M228.6,77.4l0.8,1c-2.1,1.6-4,2.8-4,2.8c-9.1,5-14.8,13.4-14.8,13.4c0.3-8.6,12.3-13.9,12.3-13.9
				c4-6.5,5.5-15.2,6.1-20c0.2-1.2,0.4-2.4,0.3-3.7c0,0-0.1,1.4-0.3,3.7c-1.7,8.5-9.6,15.9-10.2,16.4c7.6-8.6,8.5-20.5,8.5-20.5
				s-2.8,10.8-8.5,14.4c-5.8,3.7-10.7,15-10.7,15c-3-6.7,9.2-16.8,9.2-16.8l0.1-0.7c4.6-21,0.6-29.4,0.6-29.4
				c1.3,20.8-5.1,26-5.1,26c4.9-8.3,3.3-23.2,3.3-23.2l-1.7-0.1c0.4-12.4-7.2-22.9-7.2-22.9C228.7,35.8,220.8,65,220.8,65
				c7.4-6.2,7-32.7,7-32.7c8.6,26.1-1.1,46.2-1.1,46.2C227.4,78.2,228,77.8,228.6,77.4z"/>
			<path id="XMLID_47_" d="M197.4,25C197.4,25,197.4,25,197.4,25c5.9,10.6,5.9,23.7,5.9,23.7c-1.1-12.2-7-21-7.4-21.5
				c8.2,13.3,3.2,28.9,2.4,30.2c-0.8,1.3,0.3,2.7,0.3,2.7c4.1,2.5,2.8,8.4,2.4,9.2c0,0.1,0,0.1-0.1,0.2c-0.4,1-1.4,3.5-5.6,6.6
				c-4.4,3.3-8.8-0.6-8.8-0.6c-0.9,2.6-7.8,6.6-7.8,6.6c10.2-0.4,22.4,2.4,23.8,19.1c1.4,16.6-24.1,25.1-24.1,25.1l-0.1-0.6
				l-0.4-5.1c12.1,1.2,27.1-11.1,21-25.5c-6-14.1-25.9-10.7-26.8-10.5c12.8-7.4,13.8-12.1,13.8-12.1c1.6,2.1,3.9,2.7,3.9,2.7
				c4.2,0.5,6.4-1.9,8.6-5.8c2.2-3.9-0.7-7.3-2-8s-1.4-2.1-1.4-2.1c0.4-1,2-5.2,2-5.2c6.4-15.3-14.9-45.1-14.9-45.1
				c28.8,18.8,27.6,46.9,27.6,46.9c2.9-4.6,4.1-9.3,4.3-13.8l1.7,0.1c0,0-0.4,15.7-5.8,19.7c-5.4,4-7,18.1-7,18.1s-1.3-5.6,0.2-10.2
				c0.3-0.8,0.6-1.5,1-2.2c3.1-4.8,2.8-9.2,2.8-9.2C208.7,42.4,198.4,26.4,197.4,25C197.4,25,197.4,25,197.4,25z"/>
			<path id="XMLID_46_" class="st2" d="M197.4,25c0.9,1.4,11.2,17.4,9.8,33c0,0,0.3,4.4-2.8,9.2c-0.4,0.7-0.8,1.4-1,2.2l-2.4-0.1
				c0-0.1,0-0.1,0.1-0.2c0.3-0.9,1.7-6.7-2.4-9.2c0,0-1.1-1.4-0.3-2.7c0.8-1.3,5.8-16.9-2.4-30.2c0.4,0.5,6.2,9.4,7.4,21.5
				C203.3,48.6,203.2,35.5,197.4,25z"/>
			<path id="XMLID_45_" d="M178.3,135.8l3.5-4.9c-0.2,0.4-2.3,4.5-1.1,6.8l-0.1,0.1c-0.3-0.6-0.5-1.1-0.5-1.4c-0.1-1.4-2,1.1-2,1.1
				L178.3,135.8z"/>
		</g>
		<g id="XMLID_44_">
		</g>
	</g>
	<g id="XMLID_259_">
		<g id="XMLID_32_">
			<path id="XMLID_42_" d="M95.2,25C95.2,25,95.2,25,95.2,25c-1,1.5-11.3,17.5-9.9,33.1c0,0-0.3,4.4,2.8,9.2c0.4,0.7,0.8,1.4,1,2.2
				c1.6,4.6,0.2,10.2,0.2,10.2s-1.6-14.1-7-18.1c-5.4-4-5.8-19.7-5.8-19.7l1.7-0.1c0.2,4.5,1.3,9.2,4.3,13.8c0,0-1.2-28.1,27.6-46.9
				c0,0-21.3,29.9-14.9,45.1c0,0,1.6,4.2,2,5.2c0,0-0.1,1.4-1.4,2.1c-1.3,0.7-4.2,4.1-2,8c2.2,3.9,4.4,6.3,8.6,5.8
				c0,0,2.3-0.6,3.9-2.7c0,0,1.1,4.7,13.8,12.1c-0.9-0.1-20.8-3.5-26.8,10.5c-6.1,14.4,8.8,26.7,21,25.5l-0.4,4.6l-0.1,1.1
				c0,0-25.5-8.4-24.1-25.1c1.4-16.6,13.6-19.4,23.8-19.1c0,0-6.9-4-7.8-6.6c0,0-4.4,3.9-8.8,0.6c-4.4-3.3-5.3-5.9-5.6-6.8
				c0,0,0-0.1-0.1-0.2c-0.4-1.3-1.4-6.7,2.5-9.1c0,0,1.1-1.4,0.3-2.7c-0.8-1.3-5.8-16.9,2.4-30.2c-0.4,0.5-6.2,9.4-7.4,21.5
				C89.3,48.6,89.4,35.5,95.2,25C95.2,25,95.2,25,95.2,25z"/>
			<path id="XMLID_41_" class="st2" d="M94.2,123.3c-5.6,8.1-12.1,10.2-12.1,10.2c2.1-2.2,2.4-4.3,3.6-7.2c1.1-2.9,5.9-7.9,5.9-7.9
				c-3.3,0.4-7.3,6.2-7.3,6.2c-4.1,2.2-10.2,2.4-10.2,2.4c10.7-4.4,11.6-8.8,11.6-8.8c-6.9,6.7-14.1,7.4-14.1,7.4
				c9.4-10.1,15.4-10.8,15.4-10.8c-3.8-2.3-10.9,3-10.9,3c-3.1-0.2-9.8-5.3-9.8-5.3c12.3,2.2,17.8-1.6,17.8-1.6
				c-10.4,2-19.2-1.3-19.2-1.3c3.4-0.8,19.3-1.6,19.3-1.6c-1.4-2.4-13.7-2.2-13.7-2.2c-7.1-2.2-14.8-11.4-14.8-11.4
				c11.2,8.4,22.6,8,22.6,8c-13.3-2.3-21.4-9.8-21.4-9.8c8.3,4.3,10.7,3.9,10.7,3.9c7.6,0.7,17.9,6.7,17.9,6.7
				c-4.3-7.2-17.2-8.9-17.2-8.9C58.2,82.3,56,74.7,55.9,74.2c10.2,13.2,18.2,13.9,18.2,13.9c-7.1-2.7-14.3-11.9-16.2-14.4
				c0.9,1.1,2.8,2.6,4.5,4c2.4,1.9,4.8,3.5,4.8,3.5c9.1,5,14.8,13.4,14.8,13.4c-0.3-8.6-12.3-13.9-12.3-13.9c-4-6.5-5.5-15.1-6.1-20
				c1.7,8.5,9.6,15.9,10.1,16.4c-7.6-8.6-8.5-20.5-8.5-20.5s2.8,10.7,8.5,14.4s10.7,15,10.7,15c3-6.7-9.2-16.8-9.2-16.8l-0.1-0.7
				c-4.6-21-0.6-29.4-0.6-29.4c-1.3,20.8,5.1,26,5.1,26c-4.9-8.3-3.3-23.2-3.3-23.2s0.4,15.7,5.8,19.7c5.4,4,7,18.1,7,18.1
				s1.3-5.6-0.2-10.2l2.3-0.4c0,0.1,0,0.1,0.1,0.2c0.3,0.9,1.2,3.5,5.6,6.8c4.4,3.3,8.8-0.6,8.8-0.6c0.9,2.6,7.8,6.6,7.8,6.6
				c-10.2-0.4-22.4,2.4-23.8,19.1c-1.4,16.6,24.1,25.1,24.1,25.1l0.1-1.1l0.4,0.3V136l-0.2-0.3l-0.2-1.5c-2.6-1.4-5.6-7.9-5.6-7.9
				c-1.1,1.9,1.4,4.9,1.4,4.9c1.8,4.9-1.4,8.3-1.4,8.3c1.1-9.9-3.6-12.8-3.9-12.9c3.6,5.9,2.1,10.2,2.1,10.2
				c-0.4-2.4-1.6-3.4-1.6-3.4c-3.5-4-4.3-7.9-4.3-7.9c-0.8,4,1.7,6.6,1.7,6.6c-1.5,5.4-5.5,7.3-5.8,7.4c3.8-9.6,1.6-13.8,1.6-13.8
				c0.1,11.1-3.3,13.3-3.3,13.3c0.1-0.8,0.1-4.3,0.1-5.5c-0.1-1.2,0.9-9.4,0.9-9.4c-1.6,1.6-2.6,6.8-2.6,6.8
				c-4.2,4.8-10.6,4.1-10.6,4.1C92.6,129.9,94.2,123.7,94.2,123.3z"/>
			<path id="XMLID_38_" d="M96.8,139.5c0.3-0.1,4.3-2,5.8-7.4c0,0-2.4-2.6-1.7-6.6c0,0,0.8,3.9,4.3,7.9c0,0,1.3,1.1,1.6,3.4
				c0,0,1.4-4.3-2.1-10.2c0.3,0.2,5,3,3.9,12.9c0,0,3.1-3.4,1.4-8.3c0,0-2.5-3-1.4-4.9c0,0,3,6.5,5.6,7.9l0.2,1.5l0.2,1.7
				c0,0-1.9-2.5-2-1.1c-0.1,1.4-4.1,7.3-6.8,9c0,0,0.3-8.9-1.3-9.3c0,0-4.6,5.8-11.6,8.6c0,0,0.6-10.7,0.3-10.4
				c-0.3,0.3-11.8,6.3-19.3,4.7c0,0,9.8-7.4,8.1-10.9c0,0-12.3,3.3-19.4,0.4c0,0,9.6-4.9,12.1-8.5c0,0-9.9-3-16.9-11.9
				c0,0,9.6,0.1,10.7-0.6c0,0-15.5-7.5-20.9-24.1c0,0,13,10.8,17.5,10.1c0,0-16.1-19.1-15.1-37.8c0,0,5.4,14.8,13.5,21.3l-0.8,1
				c-1.8-1.4-3.6-2.9-4.5-4c1.9,2.5,9,11.7,16.2,14.4c0,0-7.9-0.7-18.2-13.9c0.1,0.5,2.3,8,12.5,20.1c0,0,12.9,1.7,17.2,8.9
				c0,0-10.3-6-17.9-6.7c0,0-2.4,0.4-10.7-3.9c0,0,8.2,7.4,21.4,9.8c0,0-11.4,0.4-22.6-8c0,0,7.8,9.3,14.8,11.4
				c0,0,12.3-0.2,13.7,2.2c0,0-15.9,0.9-19.3,1.6c0,0,8.8,3.3,19.2,1.3c0,0-5.4,3.8-17.8,1.6c0,0,6.7,5.1,9.8,5.3
				c0,0,7.1-5.3,10.9-3c0,0-6,0.7-15.4,10.8c0,0,7.3-0.7,14.1-7.4c0,0-0.9,4.4-11.6,8.8c0,0,6.1-0.3,10.2-2.4c0,0,4-5.8,7.3-6.2
				c0,0-4.8,5-5.9,7.9c-1.1,2.9-1.4,5.1-3.6,7.2c0,0,6.4-2.1,12.1-10.2c-0.1,0.4-1.7,6.6-11.4,11.8c0,0,6.4,0.6,10.6-4.1
				c0,0,1-5.3,2.6-6.8c0,0-0.9,8.2-0.9,9.4c0.1,1.2,0,4.8-0.1,5.5c0,0,3.4-2.3,3.3-13.3C98.4,125.7,100.6,129.9,96.8,139.5z
				 M57.8,73.6c-0.1-0.1-0.1-0.2-0.2-0.2c-0.1-0.1-0.2-0.2-0.2-0.3c0.1,0.1,0.1,0.2,0.2,0.3C57.7,73.5,57.7,73.6,57.8,73.6z"/>
			<path id="XMLID_37_" class="st2" d="M94.2,57.3c0.8,1.3-0.3,2.7-0.3,2.7c-3.9,2.4-2.9,7.7-2.5,9.1l-2.3,0.4
				c-0.3-0.8-0.6-1.5-1-2.2c-3.1-4.8-2.8-9.2-2.8-9.2c-1.4-15.6,8.9-31.6,9.8-33c-5.8,10.5-5.9,23.6-5.9,23.6
				c1.2-12.2,7-21,7.4-21.5C88.4,40.4,93.4,55.9,94.2,57.3z"/>
			<path id="XMLID_34_" d="M63.7,60.8c0.6,4.8,2.1,13.5,6.1,20c0,0,12,5.3,12.3,13.9c0,0-5.7-8.4-14.8-13.4c0,0-2.4-1.6-4.8-3.5
				l0.8-1c0.9,0.7,1.7,1.3,2.6,1.7c0,0-9.6-20.1-1.1-46.2c0,0-0.4,26.5,7,32.7c0,0-7.9-29.2,13.7-46.1c0,0-7.7,10.5-7.2,22.9
				l-1.7,0.1c0,0-1.6,14.9,3.3,23.2c0,0-6.4-5.2-5.1-26c0,0-4,8.4,0.6,29.4l0.1,0.7c0,0,12.2,10.1,9.2,16.8c0,0-4.9-11.3-10.7-15
				s-8.5-14.4-8.5-14.4s0.9,11.9,8.5,20.5C73.3,76.7,65.4,69.3,63.7,60.8z M63.7,60.8c-0.3-2.3-0.3-3.7-0.3-3.7
				C63.3,58.3,63.4,59.6,63.7,60.8z"/>
		</g>
		<g id="XMLID_33_">
		</g>
	</g>
	<g id="XMLID_246_">
		<g id="XMLID_24_">
			<path id="XMLID_27_" class="st3" d="M171.6,92.3c0,0,26,66.1-25.4,90c0,0-50-18.1-25.4-90.4C120.9,91.9,148.2,99.5,171.6,92.3z
				 M146.5,176.7c45.3-21.2,22.4-79.4,22.4-79.4c-20.7,6.3-44.8-0.3-44.8-0.3C102.3,160.7,146.5,176.7,146.5,176.7z"/>
			<path id="XMLID_26_" class="st0" d="M168.8,97.3c0,0,22.9,58.2-22.4,79.4c0,0-44.1-16-22.4-79.7
				C124.1,96.9,148.2,103.6,168.8,97.3z"/>
		</g>
		<g id="XMLID_25_">
			<path id="XMLID_31_" class="st4" d="M124.1,96.9c0,0,24.1,6.7,44.8,0.3c0,0,22.9,58.2-22.4,79.4
				C146.5,176.7,102.3,160.7,124.1,96.9z"/>
			<path id="XMLID_30_" class="st4" d="M120.9,91.9c0,0,27.3,7.6,50.7,0.4c0,0,26,66.1-25.4,90C146.3,182.3,96.2,164.2,120.9,91.9z"
				/>
		</g>
	</g>
	<path id="XMLID_241_" class="st5" d="M171.5,122.9c-2.7-7.2-9.6-5.4-9.6-5.4l-16.2,8.3c0,0-3.2,1.9-17.5,5.5c0,0-6.4,2-6.4,8.5
		c0,6.5,3.8,9.2,5,9.5c1.3,0.3,4.1,0.5,5.4-2.3c0,0,0.9,0.9,0.4,2.2l1.3,0.1l15.1-9.1l0.8,8.2l1.5-2.2l1.8,1.2l-0.8-6.8l7.1,2.8
		l-0.8-2l1.9-1l-6.6-2.8l14.5-6C168.3,131.6,174.2,130.1,171.5,122.9z M132.6,146.4c0.5-8.8-2.5-9.8-4.1-10.1
		c-1.5-0.3-3.2,0.1-3.8,4.7s3.3,5.7,4.8,4.6s0.9-4.2,0.3-5.2s-1.8-0.3-1,1c0.8,1.3,0.5,3.5-1.7,3.1c-2.1-0.5-1.8-7.1,1.4-7.1
		s3.2,4.3,3.2,6.2c-0.1,2-0.8,4.4-4.2,4.2c-3.5-0.2-4-6.1-4-7.7c0-1.5,0.3-5.5,3.2-6c2.9-0.5,3.7,0.3,6,2.5
		C134.9,139,132.6,146.4,132.6,146.4z M148,138.4l-13.1,8.5c0,0,3.2-10.4-4.5-13.9l12.9-4.3C143.3,128.7,150.4,129,148,138.4z
		 M167.5,130.6c-2,0.5-14.5,5.4-14.5,5.4c1.4-4.6-4-9.7-4-9.7s10.7-6.6,13.1-7.4s6.1,0,8,4.8C172,128.6,169.5,130.1,167.5,130.6z"/>
	<g id="XMLID_207_">
		<g id="XMLID_1_">
			<polygon id="XMLID_17_" class="st6" points="184.4,67.8 184.4,69.5 167.6,72.8 167.5,72.8 167.5,72.5 167.2,72.1 165.5,72.7 
				165.5,73.2 146.7,76.7 128,73.1 128,72.3 125.5,72 125.5,72.6 108.6,69.4 108.6,67.4 108.7,67.4 108.7,67.5 116.1,68.9 146.7,75 
				146.9,75 147.1,75 171.5,70.3 			"/>
			<path id="XMLID_16_" d="M184.3,67.8l-12.9,2.5l-5.6,1.1L146.9,75l-16.1-3.2l0.5-2.4c6.6,1.4,21.1,3.5,35.3-1.7
				c0,0-0.5-2.9,2.4-7.6l1.3,0c-0.9,2.7-1.2,4.3-1.2,4.3L184.3,67.8z"/>
			<path id="XMLID_10_" d="M169,60c0,0-0.1,0.1-0.2,0.2c-0.8,0.8-4,3.5-6.3,1c0,0-1.3-2.1-3.9,0.6c-2.6,2.7-9.6,0.1-11.9-4.8
				c0,0-5,9.5-13.8,4.2c-0.5-0.3-1.2-0.4-1.7,0c-0.3,0.2-0.5,0.5-0.8,0.9c-0.8,1.2-4.8-0.3-6-1.8l-1.6,0.5
				c-2.4-6.8-6.4-14.3-6.4-14.3l4.9,3.9c1.2-1.2,3.5-0.8,3.5-0.8c3.5,0.8,2.6,5.2,0.9,5.6c-1.7,0.4-1.3,2.4-1.3,2.4
				c1.5,2.9,4.5,2.4,5.8,1.8c1.3-0.6,0.8-2.8,0.4-3.6c-0.4-0.8-1.3-4.2,1.8-4.8c3.1-0.6,3.4,2.1,3.6,3.4c0.2,1.3-2,3.2-2,3.2
				c-0.9,2,2.2,3,5.3,2.9s5.8-4.4,3.6-5.3c-2.2-0.9-3.4-1.9-3.5-4.2c-0.1-2.3,2.9-3,2.9-3c-0.8-0.3-3.1-8,3.9-7.9
				c6.9,0.1,4.9,7.8,4.9,7.8c5.8,1.5,2.6,7.1,0.3,6.9c-2.3-0.2-1.3,3.2-1.3,3.2c0.9,2.4,5.6,2.6,7.9,1.8c2.3-0.8,0.6-2.7,0.6-2.7
				s-1.4-1-1.5-2.3c-0.1-1.3,0.2-4.1,3.6-3.8c1.8,0.2,2.3,1.5,2.4,2.7c0.1,1-0.2,2-0.2,2s-0.4,0.4-0.7,2.3c-0.3,1.8,2.9,3.1,5.1,1.3
				c2.2-1.8,0.2-3.6,0.2-3.6s-1.6-0.5-1.7-2.1c0-0.5,0.1-1.1,0.5-1.9c1.6-3.2,4.7-1.1,4.7-1.1c4.8-4.8,5.9-4,5.9-4
				c-3.4,5.8-5.3,10.5-6.4,13.7l-1.3,0C169,60.1,169,60,169,60z M170.2,54.3c0.4-0.6,1.3-2.4-1.2-2.6c0,0-2.1,0.7-1.4,2.2
				c0.5,1.1,1.6,0.9,2.1,0.7C170,54.6,170.1,54.5,170.2,54.3z M159.5,56.5c0.9,0.3,2.3-0.6,2.1-2.6c-0.1-0.9-0.6-1.2-1.1-1.4
				c-1.1-0.2-2.1,0.6-2.2,1.6C158.1,55.4,158.8,56.3,159.5,56.5z M146.9,55.1c1.2-0.1,5.8-0.8,4.1-4.2c-1.4-2.6-4.6-2.2-6.5-1.7
				c-1.3,0.3-2.3,1.3-2.6,2.6c-0.5,2.7,3.4,3.1,4.5,3.2C146.5,55.1,146.7,55.1,146.9,55.1z M145.4,48c0.8,0.6,5.2,0.2,4.5-3.3
				c-0.8-3.4-5.2-2.1-5.2-2.1C141.9,45.6,144.6,47.4,145.4,48z"/>
			<polygon id="XMLID_9_" class="st6" points="165.8,71.3 171.5,70.3 147.1,75 146.9,75 			"/>
			<path id="XMLID_8_" class="st0" d="M168.8,60.2L168.8,60.2c-2.8,4.7-2.3,7.6-2.3,7.6c-14.2,5.1-28.8,3.1-35.3,1.7
				c-2.3-0.5-3.7-0.9-3.7-0.9l-3.1-8.3c1.3,1.6,5.2,3,6,1.8c0.3-0.4,0.5-0.6,0.8-0.9c0.5-0.4,1.2-0.4,1.7,0
				c8.8,5.4,13.8-4.2,13.8-4.2c2.3,4.9,9.3,7.4,11.9,4.8c2.6-2.7,3.9-0.6,3.9-0.6C164.9,63.6,168,60.9,168.8,60.2z"/>
			<path id="XMLID_7_" d="M167.5,72.8v7.9c0,0-23.9,7.1-42.3-0.3l0.3-7.8l2.5,0.5l-0.2,6.1c0,0,20.3,6.2,37.9-0.3l-0.1-5.7
				L167.5,72.8z"/>
			<polygon id="XMLID_6_" points="167.5,72.5 167.5,72.8 165.5,73.2 165.5,72.7 167.2,72.1 			"/>
			<path id="XMLID_5_" class="st0" d="M165.5,73.2l0.1,5.7c-17.5,6.5-37.9,0.3-37.9,0.3l0.2-6.1l18.7,3.6L165.5,73.2z"/>
			<path id="XMLID_4_" d="M131.2,69.4l-0.5,2.4l-14.6-2.9l-7.4-1.5l15.2-3c-0.3-1.2-0.7-2.4-1.1-3.7l1.6-0.5l3.1,8.3
				C127.6,68.5,128.9,68.9,131.2,69.4z"/>
			<polygon id="XMLID_3_" points="128,72.3 128,73.1 125.5,72.6 125.5,72 			"/>
		</g>
		<g id="XMLID_2_">
			<path id="XMLID_23_" class="st1" d="M169.1,51.8c0,0-2.1,0.7-1.4,2.2c0.5,1.1,1.6,0.9,2.1,0.7c0.2-0.1,0.3-0.2,0.4-0.3
				C170.6,53.7,171.5,51.9,169.1,51.8z"/>
			<path id="XMLID_20_" class="st7" d="M141.9,51.9c0.2-1.3,1.3-2.3,2.6-2.6c1.9-0.5,5.1-0.9,6.5,1.7c1.8,3.3-2.9,4-4.1,4.2
				c-0.2,0-0.4,0-0.5,0C145.3,55.1,141.4,54.7,141.9,51.9z"/>
			<path id="XMLID_22_" class="st7" d="M169.1,59.9C169,60,169,60,169.1,59.9c-0.1,0.1-0.1,0.1-0.2,0.2c-0.8,0.8-4,3.5-6.3,1
				c0,0-1.3-2.1-3.9,0.6c-2.6,2.7-9.6,0.1-11.9-4.8c0,0-5,9.5-13.8,4.2c-0.5-0.3-1.2-0.4-1.7,0c-0.3,0.2-0.5,0.5-0.8,0.9
				c-0.8,1.2-4.8-0.3-6-1.8l3.1,8.3c0,0,1.3,0.4,3.7,0.9c6.6,1.4,21.1,3.5,35.3-1.7c0,0-0.5-2.9,2.4-7.6C169,60.1,169,60,169.1,59.9
				"/>
			<path id="XMLID_21_" class="st7" d="M170.2,60.2c1.1-3.1,3-7.8,6.4-13.7c0,0-1.1-0.8-5.9,4c0,0-3.1-2.1-4.7,1.1
				c-0.4,0.8-0.5,1.4-0.5,1.9c0.1,1.7,1.7,2.1,1.7,2.1s2,1.8-0.2,3.6c-2.2,1.8-5.3,0.5-5.1-1.3c0.3-1.8,0.7-2.3,0.7-2.3
				s0.3-0.9,0.2-2c-0.1-1.2-0.5-2.5-2.4-2.7c-3.4-0.4-3.7,2.4-3.6,3.8c0.1,1.3,1.5,2.3,1.5,2.3s1.8,1.9-0.6,2.7
				c-2.3,0.8-6.9,0.6-7.9-1.8c0,0-1-3.4,1.3-3.2c2.3,0.2,5.5-5.4-0.3-6.9c0,0,2-7.7-4.9-7.8c-6.9-0.1-4.6,7.7-3.9,7.9
				c0,0-3.1,0.8-2.9,3c0.1,2.3,1.3,3.2,3.5,4.2c2.2,0.9-0.5,5.3-3.6,5.3s-6.2-0.9-5.3-2.9c0,0,2.2-1.9,2-3.2
				c-0.2-1.3-0.5-4.1-3.6-3.4c-3.1,0.6-2.1,4-1.8,4.8c0.4,0.8,0.9,3-0.4,3.6c-1.3,0.6-4.3,1.1-5.8-1.8c0,0-0.4-2,1.3-2.4
				c1.7-0.4,2.6-4.7-0.9-5.6c0,0-2.3-0.4-3.5,0.8l-4.9-3.9c0,0,4,7.5,6.4,14.3c0.4,1.3,0.8,2.5,1.1,3.7l-15.2,3l-0.1,0l7.4,1.5
				l14.6,2.9l16.1,3.2l0.2,0.1l24.3-4.8"/>
			<path id="XMLID_19_" class="st8" d="M158.2,54.2c0.1-1.1,1.2-1.8,2.2-1.6c0.6,0.1,1.1,0.5,1.1,1.4c0.1,2-1.2,2.9-2.1,2.6
				C158.8,56.3,158.1,55.4,158.2,54.2z"/>
			<path id="XMLID_18_" class="st8" d="M144.7,42.7c0,0,4.4-1.4,5.2,2.1c0.7,3.4-3.7,3.8-4.5,3.3C144.6,47.4,141.9,45.6,144.7,42.7z
				"/>
		</g>
	</g>
	<path id="XMLID_206_" d="M116,73.2c0,0,0.9,1.1,0.3,2.1c0,0,1.1,3.9,0.7,4.6s-2.6,1.1-2.9,0c0,0-0.1-1.5,0.6-4.3
		c0,0-0.8-1.5,0.3-2.3l0.2-5.8l1,0.2L116,73.2z"/>
	<rect id="XMLID_205_" x="141.8" y="48.9" width="10" height="5.7"/>
	<rect id="XMLID_204_" x="143.4" y="42" width="6.5" height="13.1"/>
	<ellipse id="XMLID_203_" class="st5" cx="147.1" cy="51.3" rx="5.2" ry="3.1"/>
	<ellipse id="XMLID_202_" class="st5" cx="146.2" cy="43.5" rx="3.3" ry="2.4"/>
	<ellipse id="XMLID_201_" class="st5" cx="160" cy="54.4" rx="2" ry="2.2"/>
	<ellipse id="XMLID_200_" class="st5" cx="169.2" cy="53.3" rx="2" ry="2.2"/>
	<path id="XMLID_199_" class="st9" d="M202.1,174.4c0,0,6.8,12.6,16.9,11.8c0,0-1.8,0.9-4,0.9c0,0,2.5,1.1,4,1c0,0-3.2,0.9-4.3,0.8
		c0,0,1.6,0.8,4.3,0.6c0,0-0.6,1.1-4.9,1.3c0,0,3.4,0.9,4.9,0.4c0,0-0.3,1.3-4.8,0.9c0,0,1.3,1.4,3.6,1.2c0,0-2.6,1-4.4,0.5
		c0,0,2.3,1.2,3.5,1c0,0-13.3,3-19.6-10.6c0,0,3.8,3.8,5.8,4.5c0,0-4.8-6.1-4.6-6.7c0,0,4.1,3.3,4.5,3.3c0,0-3.5-5.3-3.5-5.6
		c0,0,2.6,2,3.1,2.2c0,0-2.8-3.9-2.3-4.6l2.7,2.3c0,0-1.7-3.3-1.9-3.5s2.2,1.7,2.2,1.7L202.1,174.4z"/>
	<path id="XMLID_198_" class="st5" d="M221.1,187.1c0,0,4.7-1.8,5.7-2.7s13.9-8.7,26.5-7.7c0,0-9.6,0.4-24.1,10.1
		c0,0,18.8-6.5,28.6-5.6c0,0-14.8,2.7-26.6,9.1s-12,4.4-12,4.4l4.4-1.7l-2.6-0.6l3.3-1.4l-3.3,0.1l3.9-2.3l-3.9,0.4l3.3-2.1
		L221.1,187.1z"/>
	<path id="XMLID_196_" class="st5" d="M39.1,176c0,0,12.4-0.1,19.1,4.1s13.2,6.4,13.2,6.4s-3.5-0.2-3.7-0.3s0.2,0.1,0.2,0.1
		s3.1,1.7,3.5,1.9c0,0-3.4-0.1-4-0.4c0,0,3.5,2.6,4,2.6c0,0-1.9,0.6-2.6,0l2.6,1.2c0,0-2.3,0.6-2.7,0.4c-0.4-0.2-0.4-0.2-0.4-0.2
		s4.6,2.3,5,2.3c0,0-3.8,1-8.6-2.4s-21.6-10.2-29.3-11.2c0,0,17.9,0.5,26.6,5C62.1,185.7,48.5,177.1,39.1,176z"/>
	<path id="XMLID_195_" class="st5" d="M72.4,186.2c0,0,11.5,0.5,18.4-10.9l-1.1,2.8l2-1.6l-1.9,3.3l3.4-2.5c0,0-2.2,4.8-2.8,5
		l3.7-2.9c0,0-1.9,4.8-3.5,5.8l4.5-3.4c0,0-4.1,6.7-5.4,6.9c0,0,6.6-3.6,6.5-4.5c0,0-6.8,12.3-21.2,10.5l3.5-0.9l-5.1-0.6l4.7-0.8
		l-5.8-0.9l5.2-0.8l-5.2-0.8c0,0,2.8,0.1,4.1-0.5l-3.7-1.1c0,0,3.5-0.5,3.5-0.8C76.3,187.5,72.8,186.7,72.4,186.2z"/>
	<g id="XMLID_192_">
		<path id="XMLID_194_" d="M30.4,179.2c-0.7,0-7.8-0.8-7.8-0.8s3,3.5,9.6,3.8L30.4,179.2z"/>
		<path id="XMLID_193_" d="M30.6,177.4c0,0,0.1,0,0.1,0c1.7-0.4-0.2-2.3-0.2-2.3s-4.7,0.9-6.9,2.1C23.6,177.1,28.8,177.7,30.6,177.4
			z"/>
	</g>
	<g id="XMLID_91_">
		<path id="XMLID_92_" d="M108.4,178.6l0.2-0.1c0.1-0.1,0.1-0.2,0-0.4s-0.3-0.2-0.6-0.1c-0.3,0.1-0.5,0.1-0.6,0.2
			c-0.1,0.1-0.2,0.2-0.2,0.3s-0.1,0.1-0.1,0.2s0,0.1-0.1,0.2s0,0.2,0,0.2l0,0.2c0,0.1,0,0.2,0,0.2c0.6,0,1.3,0.1,2,0.2
			c0,0,0.1,0,0.1,0c0.1,0.1,0.1,0.1,0,0.2c-0.1,0.1-0.1,0.1-0.2,0.1c-0.6-0.1-1.3-0.2-1.9-0.2c0,0.3-0.2,0.6-0.4,0.9
			c-0.2,0.2-0.5,0.4-0.9,0.4c-0.3,0-0.7-0.1-0.9-0.4s-0.3-0.5,0-0.8c0.2-0.2,0.7-0.3,1.5-0.3c0-0.1,0-0.2,0-0.3s0-0.3,0-0.4
			c0-0.1,0-0.2,0-0.3c0-0.3,0.2-0.5,0.3-0.7c0.3-0.4,0.7-0.6,1.2-0.6c0.5,0,0.8,0.1,1.1,0.4c0.2,0.2,0.3,0.3,0.3,0.5
			c0,0.2,0,0.3-0.1,0.4c-0.2,0.2-0.4,0.3-0.5,0.2C108.3,178.7,108.3,178.6,108.4,178.6z M106,179.9c-0.5,0-0.8,0.1-1,0.3
			s-0.1,0.3,0,0.5c0.1,0.1,0.2,0.1,0.3,0.1C105.8,180.6,105.9,180.4,106,179.9z"/>
		<path id="XMLID_95_" d="M107.6,183.2c-0.4-0.3-0.5-0.7-0.5-1.2c0-0.5,0.2-0.9,0.5-1.2c0.6-0.7,1.2-1.1,1.8-1.3
			c0.6-0.1,1.2,0,1.7,0.4c0.2,0.2,0.4,0.4,0.4,0.7c0,0.2,0,0.5-0.2,0.7c-0.3,0.4-0.8,0.6-1.3,0.6s-1.1-0.2-1.6-0.6
			c-0.2,0.3-0.3,0.6-0.3,0.9s0.1,0.6,0.3,0.7c0.2,0.2,0.4,0.3,0.7,0.3c0.2,0,0.5,0,0.8,0c0.6-0.1,1.2-0.3,1.8-0.6
			c0.2-0.1,0.3-0.1,0.3-0.2c0.1,0,0.1,0,0.2,0c0,0,0,0.1,0,0.1c-0.3,0.3-0.9,0.7-1.9,1C109,183.9,108.2,183.8,107.6,183.2z
			 M108.5,181.1c0.4,0.3,0.8,0.4,1.2,0.3c0.3,0,0.6-0.2,0.9-0.5c0.3-0.3,0.3-0.5,0.1-0.7c-0.2-0.2-0.6-0.2-1,0
			C109.2,180.4,108.8,180.7,108.5,181.1z"/>
		<path id="XMLID_98_" d="M110.7,185.8c-0.4-0.3-0.6-0.7-0.6-1.1c0-0.5,0.1-0.9,0.4-1.3c0.6-0.7,1.2-1.2,1.8-1.3
			c0.6-0.1,1.2,0,1.7,0.4c0.2,0.2,0.4,0.4,0.4,0.6c0.1,0.2,0,0.5-0.2,0.7c-0.3,0.4-0.8,0.6-1.3,0.6c-0.6,0-1.1-0.2-1.6-0.5
			c-0.2,0.3-0.3,0.6-0.3,0.9c0,0.3,0.1,0.6,0.3,0.7c0.2,0.2,0.4,0.3,0.7,0.3c0.2,0,0.5,0,0.8-0.1c0.6-0.2,1.2-0.4,1.7-0.7
			c0.1-0.1,0.3-0.1,0.3-0.2s0.1,0,0.2,0c0,0,0,0.1,0,0.1c-0.3,0.3-0.9,0.7-1.8,1.1C112.2,186.3,111.3,186.3,110.7,185.8z
			 M111.5,183.6c0.5,0.2,0.9,0.3,1.2,0.3c0.3,0,0.6-0.2,0.9-0.5c0.2-0.3,0.3-0.5,0.1-0.7c-0.2-0.2-0.6-0.2-1,0
			C112.2,182.9,111.8,183.2,111.5,183.6z"/>
		<path id="XMLID_101_" d="M115.9,190l0.3,0.2c0.1,0,0.1,0.1,0,0.1c-0.1,0.1-0.2,0.1-0.4,0.1c-0.2,0-0.3-0.1-0.5-0.2
			c-0.3-0.2-0.5-0.5-0.5-0.9c0-0.4,0-1.1,0.1-2c0-0.2,0-0.4,0.1-0.4c0.1-0.1,0.3-0.1,0.7-0.1c0.7,0.1,1.1-0.1,1.4-0.4
			c0.1-0.1,0.1-0.2,0.1-0.4s-0.1-0.2-0.2-0.3c-0.2-0.1-0.5-0.1-1,0.2c-0.5,0.2-0.9,0.5-1.3,0.8c-0.3,0.3-0.6,0.6-0.9,1.1
			c-0.1,0.2-0.3,0.3-0.4,0.2c-0.2-0.1-0.3-0.2-0.4-0.4c-0.1-0.2-0.2-0.3-0.1-0.3c0.1-0.1,0.3-0.4,0.8-1c0.5-0.6,0.8-1,1-1.2
			c1-1.4,1.9-2.5,2.6-3.2c0.1,0,0.2-0.1,0.5-0.1c0.3,0,0.5,0,0.6,0.1c0.1,0.1,0.1,0.2-0.1,0.5c-0.2,0.3-0.6,0.8-1.4,1.6
			c-0.7,0.8-1.3,1.6-1.9,2.3c0.4-0.4,0.9-0.7,1.5-0.9c0.6-0.2,1-0.2,1.3,0c0.5,0.3,0.6,0.7,0.2,1.2c-0.2,0.3-0.5,0.5-0.9,0.7
			c-0.4,0.1-0.8,0.2-1.2,0.1c-0.1,0-0.1,0-0.2,0c0,0,0,0.1,0,0.1c-0.1,1.1-0.1,1.9,0,2.5C115.7,189.8,115.8,189.9,115.9,190z"/>
		<path id="XMLID_103_" d="M117.2,190.3c-0.3-0.2-0.5-0.4-0.5-0.6c0-0.1,0.1-0.3,0.3-0.6s0.6-0.8,1.1-1.5c0.5-0.7,0.8-1.1,0.9-1.1
			c0.1,0,0.3-0.1,0.5-0.1c0.3,0,0.5,0,0.6,0c0.1,0.1,0.1,0.2-0.1,0.5c0,0.1-0.2,0.2-0.3,0.4c-0.2,0.2-0.3,0.3-0.4,0.4
			c-0.2,0.2-0.7,0.8-1.3,1.8c-0.1,0.2-0.2,0.3-0.1,0.3c0.1,0.1,0.4,0,0.8-0.1c0.4-0.2,0.9-0.4,1.4-0.8c0.5-0.3,0.8-0.5,0.8-0.5
			c0,0,0.1,0.1,0,0.1c-0.1,0.2-0.4,0.5-0.9,0.8C118.5,190.3,117.6,190.6,117.2,190.3z M120.3,184.7c0.1-0.1,0.2-0.2,0.4-0.2
			s0.4,0,0.5,0.1c0.2,0.1,0.2,0.3,0.1,0.5s-0.3,0.4-0.5,0.5s-0.4,0.1-0.7-0.1C119.9,185.4,120,185.2,120.3,184.7z"/>
		<path id="XMLID_106_" d="M119.9,191.1l-0.2,0.4c-0.1,0.2-0.2,0.3-0.4,0.2c-0.2-0.1-0.3-0.2-0.5-0.4c-0.1-0.1-0.2-0.3-0.1-0.3
			c0-0.1,0.2-0.4,0.6-0.9c0.3-0.5,0.6-0.9,0.7-1.1l0.4-0.7c0.2-0.4,0.4-0.6,0.5-0.6c0.1,0,0.3-0.1,0.6-0.1c0.3,0,0.5,0,0.5,0
			s0.1,0.1,0.1,0.1c0,0,0,0.1-0.1,0.2c-0.2,0.4-0.5,0.7-0.9,1c-0.3,0.4-0.5,0.7-0.6,0.9c0.1,0,0.4-0.2,0.9-0.5
			c0.5-0.3,1-0.5,1.3-0.6s0.6-0.1,0.7,0c0.2,0.1,0.3,0.2,0.3,0.4c0.1,0.2,0.1,0.3,0,0.5c-0.2,0.3-0.5,0.8-0.9,1.4
			c-0.4,0.6-0.7,1-0.8,1.2s-0.1,0.3-0.1,0.3c0.1,0.1,0.4,0,0.8-0.2c0.4-0.2,0.9-0.5,1.4-0.8c0.5-0.4,0.8-0.5,0.8-0.5
			c0,0,0.1,0.1,0,0.1c-0.1,0.2-0.4,0.5-0.9,0.8c-1.3,0.9-2.2,1.3-2.6,1.1c-0.3-0.2-0.5-0.4-0.6-0.6c0-0.1,0-0.2,0.2-0.5
			c0.1-0.2,0.4-0.6,0.7-1.1c0.3-0.5,0.6-0.8,0.7-1.1c0.1-0.3,0.2-0.4,0.1-0.4c-0.1,0-0.5,0.1-1.1,0.4c-0.7,0.3-1,0.5-1.1,0.7
			C120.1,190.6,120,190.8,119.9,191.1z"/>
		<path id="XMLID_108_" d="M125.3,194.3c-0.3,0.2-0.7,0.2-1,0.1c-0.3-0.2-0.6-0.4-0.6-0.8s0-0.9,0.3-1.6c0.3-0.6,0.7-1.1,1.3-1.4
			c0.6-0.3,1.2-0.3,1.7-0.1c0.1,0.1,0.2,0.2,0.4,0.3c0.1,0.2,0.2,0.4,0.3,0.6c0.1-0.1,0.2-0.1,0.5-0.2s0.5-0.1,0.6,0
			c0.1,0.1,0.1,0.2-0.1,0.6s-0.4,0.6-0.6,0.8c-0.3,0.5-0.6,1-0.8,1.4c1.2-0.6,1.9-0.9,2-1c0.1,0,0.1,0,0.2,0c0.1,0,0.1,0.1,0.1,0.2
			c0,0-0.1,0.1-0.1,0.1c-0.4,0.3-1.2,0.7-2.4,1.2c-0.5,0.9-0.8,1.5-1,1.9c-0.5,1-1,1.6-1.4,1.9s-1,0.3-1.6,0
			c-0.3-0.1-0.5-0.3-0.6-0.6s-0.1-0.6,0-1s0.5-0.7,1-1c0.5-0.3,1.4-0.7,2.6-1.1l0.7-1.3C126.1,193.7,125.7,194.1,125.3,194.3z
			 M125.7,195c-1.3,0.5-2.2,1.1-2.4,1.7c-0.1,0.3-0.2,0.5-0.2,0.7c0,0.2,0.1,0.4,0.3,0.4c0.3,0.1,0.5,0.1,0.7-0.2
			c0.2-0.2,0.6-0.7,1-1.6L125.7,195z M126.8,190.8c-0.2-0.1-0.5,0-0.9,0.2c-0.4,0.2-0.7,0.6-0.9,1s-0.3,0.8-0.3,1.2
			c0,0.3,0.1,0.6,0.3,0.6c0.2,0.1,0.5,0,0.8-0.2s0.8-0.7,1.5-1.3c0.1-0.3,0.2-0.4,0.3-0.5c0-0.1-0.1-0.3-0.2-0.5
			C127,191,126.9,190.9,126.8,190.8z"/>
		<path id="XMLID_112_" d="M132.7,197.2c-0.3,0.2-0.7,0.3-1,0.2c-0.4-0.1-0.6-0.4-0.7-0.7c-0.1-0.4-0.1-0.9,0.1-1.6
			c0.2-0.7,0.6-1.2,1.1-1.6c0.5-0.4,1.1-0.5,1.7-0.3c0.1,0,0.3,0.1,0.4,0.3c0.1,0.2,0.3,0.3,0.3,0.5c0.1-0.1,0.2-0.2,0.5-0.3
			c0.3-0.1,0.5-0.1,0.6-0.1c0.1,0,0.1,0.2,0,0.6s-0.3,0.6-0.5,0.9c-0.3,0.5-0.5,1-0.6,1.5c1.1-0.8,1.7-1.2,1.8-1.2
			c0.1,0,0.1-0.1,0.2,0c0.1,0,0.1,0.1,0.1,0.2c0,0,0,0.1-0.1,0.1c-0.4,0.3-1.1,0.8-2.2,1.5c-0.4,1-0.6,1.6-0.7,2
			c-0.4,1-0.8,1.7-1.2,2.1c-0.4,0.3-0.9,0.4-1.5,0.2c-0.3-0.1-0.5-0.3-0.7-0.5c-0.2-0.2-0.2-0.6-0.1-1c0.1-0.4,0.4-0.8,0.9-1.1
			c0.5-0.3,1.3-0.8,2.4-1.5l0.5-1.4C133.4,196.6,133,197,132.7,197.2z M133.1,197.9c-1.3,0.7-2,1.4-2.2,2c-0.1,0.3-0.1,0.5-0.1,0.7
			c0,0.2,0.1,0.3,0.3,0.4c0.3,0.1,0.5,0,0.7-0.3c0.2-0.3,0.5-0.8,0.8-1.7L133.1,197.9z M133.7,193.6c-0.2-0.1-0.5,0-0.9,0.3
			c-0.4,0.3-0.6,0.6-0.8,1.1c-0.2,0.5-0.2,0.9-0.2,1.2c0,0.3,0.2,0.5,0.4,0.6s0.5,0,0.8-0.3c0.3-0.3,0.7-0.8,1.3-1.5
			c0.1-0.3,0.2-0.5,0.2-0.5c0-0.1-0.1-0.3-0.3-0.5C134,193.8,133.8,193.7,133.7,193.6z"/>
		<path id="XMLID_116_" d="M137.3,195.5l0.7,0.1c0.1,0,0.1,0.1,0.2,0.2s0,0.2,0,0.3c0,0.1-0.1,0.4-0.3,0.8c-0.2,0.5-0.3,0.9-0.4,1.1
			c-0.1,0.3-0.1,0.4,0,0.4c0.1,0,0.4-0.1,0.7-0.4c0.3-0.3,0.7-0.7,1.1-1.2c0.4-0.5,0.6-0.7,0.6-0.7s0.1,0.1,0.1,0.1
			c-0.1,0.2-0.3,0.6-0.6,1c-1,1.3-1.7,1.8-2.2,1.7c-0.3-0.1-0.6-0.2-0.7-0.4c0-0.1,0-0.4,0.2-1.1c0.2-0.7,0.4-1.2,0.6-1.7
			c-0.5-0.1-0.8-0.4-0.9-0.7c-0.1-0.2-0.1-0.4,0-0.6c0-0.2,0.1-0.4,0.3-0.5s0.3-0.2,0.4-0.1c0.2,0,0.3,0.2,0.4,0.3s0.1,0.4,0.1,0.6
			c0,0.2-0.2,0.4-0.3,0.6C137.2,195.4,137.2,195.4,137.3,195.5z"/>
		<path id="XMLID_118_" d="M140.5,199.7c-0.5-0.1-0.8-0.3-1.1-0.7c-0.2-0.4-0.3-0.8-0.2-1.3c0.1-0.9,0.5-1.6,0.9-2
			c0.5-0.4,1-0.6,1.6-0.5c0.3,0,0.5,0.2,0.7,0.3c0.2,0.2,0.2,0.4,0.2,0.7c-0.1,0.5-0.4,0.9-0.8,1.2c-0.5,0.3-1,0.4-1.7,0.3
			c0,0.3,0.1,0.6,0.2,0.9c0.2,0.3,0.4,0.4,0.6,0.5s0.5,0,0.7-0.1s0.4-0.2,0.6-0.4c0.4-0.4,0.8-0.9,1.2-1.5c0.1-0.1,0.2-0.2,0.2-0.3
			c0-0.1,0.1-0.1,0.1-0.1c0,0,0.1,0,0.1,0.1c-0.1,0.4-0.4,1-1.1,1.8C142.1,199.4,141.4,199.8,140.5,199.7z M140.2,197.3
			c0.5,0,0.9-0.1,1.2-0.3c0.3-0.2,0.4-0.5,0.5-0.9c0.1-0.4,0-0.6-0.3-0.6c-0.3,0-0.6,0.1-0.9,0.5
			C140.5,196.4,140.3,196.8,140.2,197.3z"/>
		<path id="XMLID_121_" d="M146.9,200.3c-0.3,0-0.6-0.1-0.8-0.2c-0.1-0.1-0.1-0.2-0.1-0.5c0-0.2,0-0.6,0.1-1c-0.3,0.6-0.5,1-0.7,1.2
			c-0.2,0.3-0.5,0.4-0.9,0.4c-0.3,0-0.6-0.2-0.9-0.5c-0.2-0.3-0.3-0.9-0.3-1.6c0-0.7,0.3-1.3,0.7-1.8c0.4-0.5,1-0.8,1.6-0.7
			c0.3,0,0.6,0.2,0.9,0.6c0.1-0.1,0.2-0.2,0.4-0.3c0.2-0.1,0.3-0.2,0.5-0.2c0.1,0,0.2,0.2,0.2,0.5c0,0.1,0,0.3-0.1,0.5
			c-0.1,0.3-0.1,0.4-0.2,0.5c-0.1,0.2-0.2,0.9-0.2,2.1c0,0.2,0,0.4,0.1,0.4c0.1,0,0.4-0.2,0.6-0.5c0.3-0.3,0.6-0.8,0.8-1.3
			c0.3-0.5,0.5-0.8,0.5-0.8c0.1,0,0.1,0,0.1,0.1c0,0.2-0.2,0.6-0.4,1.1C147.9,199.6,147.3,200.3,146.9,200.3z M145.5,196
			c-0.2,0-0.5,0.2-0.8,0.5c-0.3,0.3-0.4,0.8-0.5,1.2c0,0.5,0,0.9,0.2,1.2c0.1,0.3,0.3,0.5,0.5,0.5c0.3,0,0.7-0.7,1.4-2.1
			c0-0.1,0-0.2,0-0.4c0-0.2,0-0.3,0.1-0.4c-0.1-0.1-0.2-0.3-0.4-0.4S145.6,196,145.5,196z"/>
		<path id="XMLID_124_" d="M151.5,198c-0.6,1.5-1.2,2.2-1.6,2.3s-0.8,0-0.8-0.1c-0.1-0.1-0.1-0.5-0.2-1.1c0-0.6,0-1.5,0.1-2.7
			c-0.4-0.1-0.7-0.2-0.7-0.5c0-0.1,0.1-0.2,0.3-0.2c0.2,0,0.3,0,0.5,0.1c0-0.6,0.1-1.3,0.2-1.9c0-0.2,0.1-0.3,0.2-0.5
			c0.1-0.2,0.3-0.2,0.4-0.2c0.1,0,0.2,0.2,0.2,0.5c0,0.2,0,0.9-0.1,2.3c0.2-0.1,0.5-0.2,0.8-0.3c0.3-0.1,0.4-0.2,0.5-0.2
			c0.2,0,0.2,0,0.2,0.1c0,0.1-0.1,0.2-0.5,0.4c-0.3,0.2-0.7,0.3-1,0.4c0,1.3,0,2.2,0,2.9c0,0.3,0.1,0.5,0.2,0.5
			c0.2,0,0.4-0.2,0.6-0.6c0.2-0.4,0.5-0.8,0.7-1.4c0.2-0.6,0.4-0.9,0.4-0.9c0.1,0,0.1,0,0.1,0.1C151.8,197,151.7,197.4,151.5,198z"
			/>
		<path id="XMLID_126_" d="M153.2,199.9c-0.5,0.1-0.9-0.1-1.2-0.4c-0.3-0.3-0.5-0.7-0.6-1.2c-0.1-0.9,0-1.7,0.3-2.2
			c0.3-0.5,0.8-0.8,1.4-0.9c0.3,0,0.5,0,0.8,0.1c0.2,0.1,0.3,0.3,0.4,0.6c0.1,0.5-0.1,1-0.5,1.4c-0.4,0.4-0.9,0.7-1.5,0.8
			c0.1,0.3,0.2,0.6,0.5,0.8c0.2,0.2,0.5,0.3,0.7,0.3c0.3,0,0.5-0.1,0.7-0.3c0.2-0.1,0.4-0.3,0.5-0.6c0.3-0.5,0.5-1.1,0.7-1.7
			c0-0.2,0.1-0.3,0.1-0.4s0.1-0.1,0.1-0.1c0,0,0.1,0,0.1,0.1c0.1,0.4-0.1,1.1-0.5,2C154.7,199.3,154.1,199.8,153.2,199.9z
			 M152.2,197.8c0.5-0.2,0.8-0.4,1-0.6c0.2-0.3,0.3-0.6,0.2-1s-0.2-0.6-0.5-0.5c-0.3,0-0.5,0.3-0.7,0.7
			C152.2,196.8,152.2,197.3,152.2,197.8z"/>
		<path id="XMLID_129_" d="M156.8,195.2l0-0.2c0-0.2-0.1-0.2-0.3-0.2s-0.3,0.2-0.4,0.4c-0.1,0.3-0.1,0.5-0.1,0.6
			c0,0.1,0.1,0.3,0.1,0.3s0.1,0.1,0.1,0.2c0,0,0.1,0.1,0.2,0.2c0.1,0.1,0.1,0.1,0.2,0.1l0.2,0.1c0.1,0.1,0.1,0.1,0.2,0.1
			c0.4-0.5,0.8-1,1.3-1.6c0,0,0.1-0.1,0.1-0.1c0.1,0,0.1,0,0.2,0.1c0,0.1,0,0.2-0.1,0.2c-0.5,0.5-0.9,1-1.3,1.5
			c0.2,0.2,0.4,0.5,0.5,0.8c0.1,0.3,0,0.6-0.2,0.9c-0.2,0.3-0.5,0.5-0.9,0.6c-0.4,0.1-0.6-0.1-0.7-0.4c-0.1-0.3,0.1-0.7,0.6-1.4
			c-0.1,0-0.1-0.1-0.3-0.2s-0.2-0.2-0.3-0.2c-0.1-0.1-0.2-0.1-0.3-0.2c-0.2-0.2-0.3-0.4-0.4-0.6c-0.1-0.5,0-0.9,0.2-1.3
			c0.3-0.4,0.6-0.6,0.9-0.7c0.2-0.1,0.4,0,0.6,0.1c0.2,0.1,0.2,0.2,0.3,0.3c0.1,0.3,0,0.4-0.1,0.5
			C156.9,195.3,156.8,195.2,156.8,195.2z M156.6,197.9c-0.3,0.4-0.4,0.7-0.3,0.9c0,0.2,0.2,0.3,0.4,0.2c0.1,0,0.2-0.1,0.3-0.2
			C157,198.5,156.9,198.2,156.6,197.9z"/>
		<path id="XMLID_132_" d="M160.9,195.9c-0.2,1.6-0.6,2.5-1,2.6c-0.5,0.1-0.7,0.2-0.8,0.1c-0.1-0.1-0.3-0.4-0.4-1
			c-0.2-0.6-0.4-1.5-0.6-2.7c-0.4,0-0.7-0.1-0.8-0.3c0-0.1,0-0.2,0.2-0.3c0.2-0.1,0.3-0.1,0.5,0c-0.1-0.6-0.2-1.3-0.3-1.9
			c0-0.2,0-0.3,0.1-0.5c0.1-0.2,0.2-0.3,0.3-0.3c0.1,0,0.2,0.1,0.3,0.5c0,0.2,0.2,0.9,0.5,2.2c0.2-0.1,0.4-0.3,0.7-0.5
			c0.2-0.2,0.4-0.3,0.4-0.3c0.1,0,0.2,0,0.3,0.1c0,0.1-0.1,0.2-0.4,0.5c-0.3,0.2-0.6,0.5-0.9,0.6c0.3,1.2,0.5,2.2,0.7,2.8
			c0.1,0.3,0.2,0.5,0.3,0.5c0.1-0.1,0.3-0.3,0.4-0.7c0.1-0.4,0.3-0.9,0.3-1.5s0.2-0.9,0.2-1c0.1,0,0.1,0,0.1,0.1
			C161,194.9,161,195.4,160.9,195.9z"/>
		<path id="XMLID_134_" d="M165,195.8l0.2,0.4c0.1,0.2,0.1,0.4,0,0.4c-0.2,0.1-0.4,0.2-0.6,0.2c-0.2,0-0.3,0-0.4-0.1
			c0-0.1-0.2-0.4-0.4-1s-0.4-1-0.5-1.2l-0.3-0.7c-1-2-1.2-3.4-0.8-4.3c0.1-0.2,0.2-0.3,0.4-0.4c0.1,0,0.2,0,0.4,0.1
			c0.2,0.1,0.3,0.3,0.4,0.6c0.3,0.7,0.5,1.4,0.6,2c0.1,0.7,0,1.3,0,1.7c0.1,0.2,0.2,0.5,0.4,0.9c0-0.1,0-0.4,0.1-1
			c0.1-0.6,0.1-1.1,0.2-1.4c0.1-0.3,0.2-0.5,0.4-0.6c0.2-0.1,0.3-0.1,0.5,0c0.2,0,0.3,0.2,0.4,0.3c0.2,0.3,0.4,0.9,0.6,1.6
			c0.2,0.7,0.4,1.1,0.5,1.3s0.2,0.3,0.2,0.2c0.1-0.1,0.2-0.3,0.3-0.8c0.1-0.4,0.1-1,0.1-1.6c0-0.6,0-0.9,0.1-1c0,0,0.1,0,0.1,0.1
			c0.1,0.2,0.2,0.6,0.2,1.2c0,1.6-0.2,2.5-0.6,2.7c-0.3,0.1-0.6,0.2-0.8,0.1c-0.1,0-0.2-0.2-0.3-0.4s-0.3-0.6-0.5-1.2
			c-0.2-0.5-0.4-0.9-0.5-1.2c-0.1-0.3-0.2-0.4-0.3-0.3c-0.1,0-0.2,0.4-0.3,1.1s-0.2,1.2-0.1,1.3C164.8,195.3,164.9,195.6,165,195.8z
			 M163.3,190.2c-0.2-0.3-0.3-0.5-0.4-0.4c-0.1,0.1-0.1,0.6,0.2,1.5c0.2,0.5,0.4,1.1,0.6,1.7C163.8,191.8,163.6,190.9,163.3,190.2z"
			/>
		<path id="XMLID_137_" d="M170.5,193.8c-0.4,0.3-0.8,0.3-1.3,0.1c-0.4-0.2-0.8-0.4-1-0.8c-0.5-0.8-0.7-1.5-0.6-2.1
			c0.1-0.6,0.4-1.1,0.9-1.4c0.3-0.2,0.5-0.2,0.7-0.2s0.4,0.2,0.6,0.4c0.3,0.4,0.3,0.9,0.1,1.5c-0.2,0.5-0.6,1-1.1,1.3
			c0.2,0.3,0.5,0.5,0.8,0.6c0.3,0.1,0.6,0.1,0.8,0c0.2-0.1,0.4-0.3,0.5-0.5c0.1-0.2,0.2-0.5,0.2-0.7c0.1-0.6,0-1.2-0.1-1.9
			c0-0.2,0-0.3,0-0.4c0-0.1,0-0.1,0.1-0.2c0,0,0.1,0,0.1,0.1c0.2,0.4,0.3,1.1,0.3,2.1C171.6,192.6,171.2,193.4,170.5,193.8z
			 M168.8,192.3c0.4-0.3,0.6-0.7,0.7-1c0.1-0.3,0-0.7-0.2-1c-0.2-0.3-0.4-0.4-0.6-0.3c-0.3,0.2-0.4,0.5-0.3,0.9
			S168.5,191.8,168.8,192.3z"/>
		<path id="XMLID_140_" d="M169.3,186.9c-0.1-0.1-0.1-0.3,0-0.5c0.1-0.2,0.2-0.3,0.3-0.4c0.2-0.1,0.4-0.1,0.5,0.1
			c0.2,0.2,0.2,0.4,0.2,0.7c0,0.2-0.1,0.4-0.3,0.6C169.9,187.6,169.6,187.4,169.3,186.9z M173.3,192c-0.3,0.2-0.5,0.3-0.7,0.3
			c-0.1,0-0.2-0.2-0.4-0.5c-0.2-0.3-0.5-0.8-1-1.6c-0.5-0.7-0.7-1.2-0.7-1.2c0-0.1,0-0.3,0.1-0.6c0.1-0.3,0.2-0.5,0.3-0.5
			c0.1-0.1,0.2,0,0.4,0.3c0,0.1,0.1,0.2,0.2,0.5c0.1,0.2,0.2,0.4,0.2,0.5c0.1,0.3,0.5,0.9,1.2,1.9c0.1,0.2,0.2,0.3,0.3,0.2
			c0.1-0.1,0.2-0.4,0.2-0.8s0-1-0.2-1.6c-0.1-0.6-0.2-0.9-0.1-1c0,0,0.1,0,0.1,0c0.1,0.2,0.3,0.6,0.4,1.2
			C173.8,190.8,173.7,191.7,173.3,192z"/>
		<path id="XMLID_143_" d="M176.2,189.2c0,0.4-0.1,0.7-0.4,1c-0.3,0.2-0.6,0.3-1,0.2c-0.4-0.1-0.8-0.4-1.3-1
			c-0.4-0.5-0.7-1.2-0.7-1.8s0.2-1.2,0.7-1.6c0.1-0.1,0.3-0.1,0.5-0.2c0.2,0,0.4,0,0.6,0c0-0.1,0-0.3,0-0.6c0.1-0.3,0.1-0.5,0.2-0.5
			s0.3,0,0.5,0.3c0.2,0.3,0.4,0.6,0.4,0.9c0.3,0.5,0.6,1,0.9,1.3c0-1.4,0-2.1,0-2.2c0-0.1,0-0.1,0.1-0.2c0.1-0.1,0.1,0,0.2,0
			c0,0,0.1,0.1,0.1,0.2c0,0.5,0.1,1.4,0.1,2.7c0.6,0.8,1,1.4,1.2,1.7c0.7,0.9,1,1.6,1.1,2.1s-0.1,1-0.7,1.4
			c-0.2,0.2-0.5,0.3-0.8,0.3c-0.3,0-0.6-0.1-0.9-0.5c-0.3-0.3-0.4-0.8-0.5-1.4s0-1.5,0.1-2.8l-0.9-1.2
			C176,188.2,176.2,188.8,176.2,189.2z M173.7,186.4c-0.2,0.2-0.3,0.5-0.2,0.9c0,0.5,0.2,0.9,0.5,1.3c0.3,0.4,0.6,0.6,0.9,0.8
			c0.3,0.1,0.5,0.2,0.7,0c0.2-0.1,0.2-0.4,0.1-0.8c-0.1-0.4-0.3-1-0.6-1.9c-0.2-0.2-0.3-0.4-0.3-0.5c-0.1-0.1-0.3-0.1-0.6,0
			C174,186.2,173.9,186.3,173.7,186.4z M177,189.2c-0.1,1.5,0.1,2.4,0.5,2.9c0.2,0.2,0.4,0.4,0.6,0.5s0.4,0.1,0.5,0
			c0.2-0.2,0.3-0.4,0.2-0.7s-0.4-0.8-1-1.6L177,189.2z"/>
		<path id="XMLID_147_" d="M179.1,186.4l0.3,0.3c0.2,0.2,0.2,0.3,0.1,0.4c-0.2,0.1-0.3,0.3-0.5,0.4c-0.2,0.1-0.3,0.1-0.4,0
			c-0.1-0.1-0.3-0.3-0.7-0.8c-0.4-0.5-0.7-0.8-0.9-1l-0.5-0.5c-1.5-1.6-2.2-2.9-2.1-3.9c0-0.2,0.1-0.4,0.3-0.5
			c0.1-0.1,0.2-0.1,0.4,0s0.4,0.2,0.6,0.4c0.5,0.5,0.9,1.1,1.2,1.8c0.3,0.6,0.4,1.2,0.5,1.6c0.1,0.2,0.4,0.4,0.7,0.7
			c0-0.1-0.1-0.4-0.2-1c-0.1-0.6-0.2-1.1-0.2-1.4c0-0.3,0.1-0.6,0.2-0.7c0.1-0.1,0.3-0.2,0.5-0.2c0.2,0,0.3,0,0.5,0.2
			c0.3,0.3,0.6,0.7,1.1,1.3s0.7,1,0.9,1.1s0.2,0.2,0.3,0.2c0.1-0.1,0.1-0.4,0.1-0.8s-0.2-1-0.4-1.5c-0.2-0.6-0.3-0.9-0.2-0.9
			c0,0,0.1,0,0.1,0c0.2,0.2,0.3,0.5,0.5,1.1c0.5,1.5,0.6,2.5,0.3,2.8c-0.2,0.2-0.5,0.4-0.7,0.4c-0.1,0-0.2-0.1-0.4-0.3
			c-0.2-0.2-0.4-0.5-0.8-1c-0.4-0.4-0.6-0.8-0.8-1c-0.2-0.2-0.3-0.3-0.4-0.2s-0.1,0.5,0,1.2s0.2,1.2,0.3,1.3
			C178.7,186,178.9,186.2,179.1,186.4z M175.7,181.6c-0.3-0.3-0.4-0.4-0.5-0.3c-0.1,0.1,0.1,0.6,0.7,1.4c0.3,0.4,0.7,0.9,1.1,1.4
			C176.6,183,176.2,182.1,175.7,181.6z"/>
		<path id="XMLID_150_" d="M182.9,180.5c0.6,1.5,0.7,2.4,0.4,2.8c-0.3,0.3-0.6,0.5-0.7,0.5s-0.4-0.2-0.9-0.7c-0.5-0.4-1.1-1.1-1.9-2
			c-0.4,0.3-0.6,0.3-0.9,0.1c-0.1-0.1-0.1-0.2,0-0.3c0.1-0.1,0.3-0.2,0.4-0.3c-0.4-0.5-0.8-1-1.2-1.5c-0.1-0.1-0.2-0.3-0.2-0.5
			c0-0.2,0-0.4,0.1-0.4c0.1-0.1,0.2,0,0.5,0.2c0.1,0.1,0.6,0.7,1.5,1.7c0.1-0.2,0.2-0.4,0.3-0.7c0.1-0.3,0.2-0.5,0.2-0.5
			c0.1-0.1,0.2-0.1,0.3-0.1c0.1,0.1,0,0.3-0.1,0.6c-0.1,0.3-0.3,0.7-0.5,1c0.9,0.9,1.5,1.6,2,2.1c0.3,0.2,0.4,0.3,0.5,0.2
			c0.1-0.1,0.1-0.4,0-0.8c-0.1-0.4-0.2-0.9-0.5-1.5c-0.2-0.6-0.3-0.9-0.3-0.9c0,0,0.1,0,0.1,0C182.4,179.6,182.6,180,182.9,180.5z"
			/>
		<path id="XMLID_152_" d="M182.6,178l-0.1-0.1c-0.1-0.1-0.2-0.1-0.4,0c-0.1,0.1-0.1,0.3-0.1,0.6c0.1,0.3,0.2,0.5,0.3,0.6
			c0.1,0.1,0.2,0.2,0.3,0.2s0.1,0.1,0.2,0.1c0.1,0,0.1,0,0.2,0c0.1,0,0.2,0,0.2,0l0.2,0c0.1,0,0.2,0,0.2,0c0-0.6,0.1-1.3,0.1-2
			c0,0,0-0.1,0-0.1c0.1-0.1,0.1-0.1,0.2,0c0.1,0.1,0.1,0.1,0.1,0.2c-0.1,0.7-0.2,1.3-0.2,1.9c0.3,0,0.6,0.2,0.9,0.4
			c0.2,0.2,0.4,0.5,0.4,0.8c0,0.3-0.1,0.7-0.4,1c-0.3,0.3-0.5,0.3-0.8,0.1c-0.2-0.2-0.3-0.7-0.4-1.5c-0.1,0-0.2,0-0.3,0
			c-0.2,0-0.3,0-0.4,0c-0.1,0-0.2,0-0.3,0c-0.3,0-0.5-0.1-0.7-0.3c-0.4-0.3-0.6-0.7-0.6-1.2c0-0.5,0.1-0.8,0.3-1.1
			c0.2-0.2,0.3-0.3,0.5-0.3c0.2,0,0.3,0,0.4,0.1c0.2,0.2,0.3,0.3,0.2,0.4C182.7,178,182.6,178.1,182.6,178z M184,180.3
			c0,0.5,0.1,0.8,0.3,0.9c0.2,0.1,0.3,0.1,0.5,0c0.1-0.1,0.1-0.2,0.1-0.3C184.7,180.6,184.4,180.4,184,180.3z"/>
	</g>
</g>
</svg>
