<svg width="155" height="155" viewBox="0 0 155 155" fill="none" xmlns="http://www.w3.org/2000/svg">
<circle cx="77.5" cy="77.5" r="77.5" fill="#174A79"/>
<path d="M38.12 62.728V88H31.964V77.596H22.388V88H16.232V62.728H22.388V72.628H31.964V62.728H38.12ZM48.72 67.66V72.772H56.964V77.524H48.72V83.068H58.044V88H42.564V62.728H58.044V67.66H48.72ZM77.5206 88L72.3726 80.26L67.8366 88H60.8526L68.9526 75.148L60.6726 62.728H67.8366L72.9126 70.36L77.3766 62.728H84.3606L76.3326 75.472L84.6846 88H77.5206ZM86.731 75.328C86.731 72.832 87.271 70.612 88.351 68.668C89.431 66.7 90.931 65.176 92.851 64.096C94.795 62.992 96.991 62.44 99.439 62.44C102.439 62.44 105.007 63.232 107.143 64.816C109.279 66.4 110.707 68.56 111.427 71.296H104.659C104.155 70.24 103.435 69.436 102.499 68.884C101.587 68.332 100.543 68.056 99.367 68.056C97.471 68.056 95.935 68.716 94.759 70.036C93.583 71.356 92.995 73.12 92.995 75.328C92.995 77.536 93.583 79.3 94.759 80.62C95.935 81.94 97.471 82.6 99.367 82.6C100.543 82.6 101.587 82.324 102.499 81.772C103.435 81.22 104.155 80.416 104.659 79.36H111.427C110.707 82.096 109.279 84.256 107.143 85.84C105.007 87.4 102.439 88.18 99.439 88.18C96.991 88.18 94.795 87.64 92.851 86.56C90.931 85.456 89.431 83.932 88.351 81.988C87.271 80.044 86.731 77.824 86.731 75.328ZM127.149 88.252C124.773 88.252 122.589 87.7 120.597 86.596C118.629 85.492 117.057 83.956 115.881 81.988C114.729 79.996 114.153 77.764 114.153 75.292C114.153 72.82 114.729 70.6 115.881 68.632C117.057 66.664 118.629 65.128 120.597 64.024C122.589 62.92 124.773 62.368 127.149 62.368C129.525 62.368 131.697 62.92 133.665 64.024C135.657 65.128 137.217 66.664 138.345 68.632C139.497 70.6 140.073 72.82 140.073 75.292C140.073 77.764 139.497 79.996 138.345 81.988C137.193 83.956 135.633 85.492 133.665 86.596C131.697 87.7 129.525 88.252 127.149 88.252ZM127.149 82.636C129.165 82.636 130.773 81.964 131.973 80.62C133.197 79.276 133.809 77.5 133.809 75.292C133.809 73.06 133.197 71.284 131.973 69.964C130.773 68.62 129.165 67.948 127.149 67.948C125.109 67.948 123.477 68.608 122.253 69.928C121.053 71.248 120.453 73.036 120.453 75.292C120.453 77.524 121.053 79.312 122.253 80.656C123.477 81.976 125.109 82.636 127.149 82.636Z" fill="white"/>
</svg>
