<svg width="67" height="67" viewBox="0 0 67 67" fill="none" xmlns="http://www.w3.org/2000/svg">
<path d="M56.7969 30.1719H54.5781V32.3906H56.7969V30.1719Z" fill="black"/>
<path d="M63.4532 22.4062H47.9219C47.4326 22.4069 46.9496 22.5168 46.5082 22.7279C46.0667 22.9391 45.678 23.2461 45.3703 23.6266C45.0448 23.3965 44.6802 23.2273 44.2942 23.1273L37.9375 21.5409V18.7897C38.9635 18.0742 39.8017 17.1217 40.3811 16.0132C40.9605 14.9046 41.2639 13.6727 41.2657 12.4219V11.3125H42.375C42.6693 11.3125 42.9514 11.1956 43.1595 10.9876C43.3675 10.7795 43.4844 10.4973 43.4844 10.2031C43.4844 7.5551 42.4325 5.01554 40.56 3.14311C38.6876 1.27067 36.148 0.21875 33.5 0.21875C30.852 0.21875 28.3124 1.27067 26.44 3.14311C24.5676 5.01554 23.5156 7.5551 23.5156 10.2031C23.5156 10.4973 23.6325 10.7795 23.8406 10.9876C24.0486 11.1956 24.3308 11.3125 24.625 11.3125H25.7344V12.4219C25.7361 13.6727 26.0396 14.9046 26.619 16.0132C27.1983 17.1217 28.0366 18.0742 29.0625 18.7897V21.5409L22.7058 23.1273C21.9863 23.3078 21.3477 23.7235 20.8915 24.3084C20.4353 24.8933 20.1875 25.6138 20.1875 26.3556V37.9375H13.3316C13.4607 37.5818 13.5283 37.2066 13.5313 36.8281C13.5291 36.0066 13.2206 35.2154 12.666 34.6094C13.2206 34.0033 13.5291 33.2121 13.5313 32.3906C13.5283 32.0122 13.4607 31.637 13.3316 31.2812H14.6406C14.9349 31.2812 15.217 31.1644 15.4251 30.9563C15.6331 30.7483 15.75 30.4661 15.75 30.1719V26.8438C16.0442 26.8438 16.3264 26.7269 16.5345 26.5188C16.7425 26.3108 16.8594 26.0286 16.8594 25.7344V19.9878L19.4664 19.0116C19.6806 18.9338 19.8656 18.792 19.9964 18.6055C20.1272 18.4189 20.1973 18.1966 20.1973 17.9688C20.1973 17.7409 20.1272 17.5186 19.9964 17.332C19.8656 17.1455 19.6806 17.0037 19.4664 16.9259L10.5914 13.5978C10.3402 13.5091 10.0661 13.5091 9.81487 13.5978L0.939869 16.9259C0.725703 17.0037 0.540664 17.1455 0.409899 17.332C0.279134 17.5186 0.208984 17.7409 0.208984 17.9688C0.208984 18.1966 0.279134 18.4189 0.409899 18.6055C0.540664 18.792 0.725703 18.9338 0.939869 19.0116L3.5469 19.9878V25.4903C3.05232 25.9243 2.7007 26.4978 2.53833 27.1354C2.37595 27.773 2.41043 28.4449 2.63721 29.0625H1.32815C1.03393 29.0625 0.751752 29.1794 0.543704 29.3874C0.335655 29.5955 0.218775 29.8777 0.218775 30.1719V45.7031C0.218775 45.9973 0.335655 46.2795 0.543704 46.4876C0.751752 46.6956 1.03393 46.8125 1.32815 46.8125H4.65627V65.6719C4.65627 65.9661 4.77316 66.2483 4.9812 66.4563C5.18925 66.6644 5.47143 66.7812 5.76565 66.7812H10.2031C10.4974 66.7812 10.7795 66.6644 10.9876 66.4563C11.1956 66.2483 11.3125 65.9661 11.3125 65.6719V46.8125H21.2969V50.1406C21.3003 50.8541 21.5328 51.5476 21.9603 52.1189C22.3877 52.6901 22.9874 53.1089 23.671 53.3134C23.5743 53.7283 23.5222 54.1522 23.5156 54.5781V65.6719C23.5156 65.9661 23.6325 66.2483 23.8406 66.4563C24.0486 66.6644 24.3308 66.7812 24.625 66.7812H42.375C42.6693 66.7812 42.9514 66.6644 43.1595 66.4563C43.3675 66.2483 43.4844 65.9661 43.4844 65.6719V54.5781C43.4778 54.1522 43.4258 53.7283 43.3291 53.3134C44.0126 53.1089 44.6123 52.6901 45.0398 52.1189C45.4672 51.5476 45.6998 50.8541 45.7032 50.1406V46.8125H55.6875V65.6719C55.6875 65.9661 55.8044 66.2483 56.0125 66.4563C56.2205 66.6644 56.5027 66.7812 56.7969 66.7812H61.2344C61.5286 66.7812 61.8108 66.6644 62.0188 66.4563C62.2269 66.2483 62.3438 65.9661 62.3438 65.6719V46.8125H65.6719C65.9661 46.8125 66.2483 46.6956 66.4563 46.4876C66.6644 46.2795 66.7813 45.9973 66.7813 45.7031V25.7344C66.7786 24.8525 66.4272 24.0075 65.8036 23.3839C65.18 22.7604 64.335 22.4089 63.4532 22.4062V22.4062ZM25.8121 9.09375C26.0758 7.24267 26.9986 5.5489 28.4109 4.32356C29.8232 3.09823 31.6302 2.4236 33.5 2.4236C35.3698 2.4236 37.1768 3.09823 38.5891 4.32356C40.0014 5.5489 40.9242 7.24267 41.188 9.09375H40.4891L37.4383 7.06359C37.2907 6.96201 37.1201 6.89868 36.942 6.87932C36.7638 6.85996 36.5837 6.88516 36.4177 6.95266L31.8138 8.79422L31.1592 7.48516C31.0886 7.34619 30.99 7.22325 30.8698 7.12401C30.7496 7.02476 30.6102 6.95133 30.4603 6.90828C30.3081 6.86902 30.1493 6.86256 29.9943 6.88934C29.8394 6.91611 29.692 6.97551 29.5617 7.06359L26.511 9.09375H25.8121ZM27.9531 12.4219V10.8022L29.7392 9.60406L30.2939 10.7023C30.3842 10.8869 30.5248 11.0421 30.6995 11.15C30.8742 11.258 31.0759 11.3143 31.2813 11.3125C31.4219 11.3136 31.5613 11.2873 31.6917 11.2348L36.695 9.22687L39.0469 10.8022V12.4219C39.0469 13.893 38.4625 15.3039 37.4223 16.3441C36.382 17.3843 34.9711 17.9688 33.5 17.9688C32.0289 17.9688 30.618 17.3843 29.5778 16.3441C28.5376 15.3039 27.9531 13.893 27.9531 12.4219ZM35.7188 19.8658V22.4062C35.7188 22.9947 35.485 23.559 35.0689 23.9751C34.6528 24.3912 34.0885 24.625 33.5 24.625C32.9116 24.625 32.3472 24.3912 31.9311 23.9751C31.515 23.559 31.2813 22.9947 31.2813 22.4062V19.8658C32.7293 20.2947 34.2707 20.2947 35.7188 19.8658ZM22.4063 26.3556C22.4065 26.1079 22.4896 25.8673 22.6424 25.6723C22.7952 25.4773 23.0089 25.339 23.2494 25.2795L29.2955 23.7708C29.5799 24.6626 30.1405 25.441 30.8963 25.9933C31.6521 26.5456 32.5639 26.8432 33.5 26.8432C34.4361 26.8432 35.348 26.5456 36.1038 25.9933C36.8596 25.441 37.4202 24.6626 37.7046 23.7708L43.7507 25.2795C43.9912 25.339 44.2049 25.4773 44.3577 25.6723C44.5105 25.8673 44.5936 26.1079 44.5938 26.3556V33.5H41.2657C40.9714 33.5 40.6893 33.6169 40.4812 33.8249C40.2732 34.033 40.1563 34.3152 40.1563 34.6094C40.1596 35.8144 40.5614 36.9845 41.2989 37.9375H37.9375V34.6094C37.9375 34.3152 37.8206 34.033 37.6126 33.8249C37.4046 33.6169 37.1224 33.5 36.8282 33.5H35.2972L33.378 29.6727L31.4033 30.6711L32.8122 33.5H29.0625V29.0625H26.8438V34.6094C26.8438 34.9036 26.9607 35.1858 27.1687 35.3938C27.3768 35.6019 27.6589 35.7188 27.9531 35.7188H35.7188V37.9375H22.4063V26.3556ZM44.5938 35.7188V37.7489C44.1259 37.5824 43.701 37.3138 43.3499 36.9627C42.9987 36.6115 42.7301 36.1866 42.5636 35.7188H44.5938ZM13.5313 29.0625H5.76565C5.47143 29.0625 5.18925 28.9456 4.9812 28.7376C4.77316 28.5295 4.65627 28.2473 4.65627 27.9531C4.65627 27.6589 4.77316 27.3767 4.9812 27.1687C5.18925 26.9606 5.47143 26.8438 5.76565 26.8438H13.5313V29.0625ZM14.6406 24.625H5.76565V20.8198L9.81487 22.3397C10.0661 22.4284 10.3402 22.4284 10.5914 22.3397L14.6406 20.8198V24.625ZM10.2031 15.8277L15.9164 17.9688L10.2031 20.1098L4.48987 17.9688L10.2031 15.8277ZM2.43753 31.2812H10.2031C10.4974 31.2812 10.7795 31.3981 10.9876 31.6062C11.1956 31.8142 11.3125 32.0964 11.3125 32.3906C11.3125 32.6848 11.1956 32.967 10.9876 33.1751C10.7795 33.3831 10.4974 33.5 10.2031 33.5H2.43753V31.2812ZM2.43753 35.7188H10.2031C10.4974 35.7188 10.7795 35.8356 10.9876 36.0437C11.1956 36.2517 11.3125 36.5339 11.3125 36.8281C11.3125 37.1223 11.1956 37.4045 10.9876 37.6126C10.7795 37.8206 10.4974 37.9375 10.2031 37.9375H2.43753V35.7188ZM9.09377 64.5625H6.87502V46.8125H9.09377V64.5625ZM32.3906 64.5625H25.7344V54.5781C25.7344 53.6955 26.085 52.8489 26.7092 52.2248C27.3333 51.6006 28.1799 51.25 29.0625 51.25C29.9452 51.25 30.7917 51.6006 31.4159 52.2248C32.04 52.8489 32.3906 53.6955 32.3906 54.5781V64.5625ZM41.2657 64.5625H34.6094V54.5781C34.6094 53.6955 34.96 52.8489 35.5842 52.2248C36.2083 51.6006 37.0549 51.25 37.9375 51.25C38.8202 51.25 39.6667 51.6006 40.2909 52.2248C40.915 52.8489 41.2657 53.6955 41.2657 54.5781V64.5625ZM43.4844 50.1406C43.4844 50.4348 43.3675 50.717 43.1595 50.9251C42.9514 51.1331 42.6693 51.25 42.375 51.25H42.3417C41.8291 50.5589 41.161 49.9979 40.3916 49.6125C39.6222 49.2271 38.773 49.028 37.9125 49.0312C37.0519 49.0345 36.2042 49.24 35.4377 49.6312C34.6713 50.0224 34.0075 50.5883 33.5 51.2833C32.9925 50.5883 32.3288 50.0224 31.5623 49.6312C30.7958 49.24 29.9481 49.0345 29.0876 49.0312C28.227 49.028 27.3778 49.2271 26.6084 49.6125C25.839 49.9979 25.171 50.5589 24.6583 51.25H24.625C24.3308 51.25 24.0486 51.1331 23.8406 50.9251C23.6325 50.717 23.5156 50.4348 23.5156 50.1406V46.8125H43.4844V50.1406ZM60.125 64.5625H57.9063V46.8125H60.125V64.5625ZM64.5625 44.5938H2.43753V40.1562H64.5625V44.5938ZM64.5625 37.9375H46.8125V25.7344C46.8125 25.4402 46.9294 25.158 47.1375 24.9499C47.3455 24.7419 47.6277 24.625 47.9219 24.625H63.4532C63.7474 24.625 64.0296 24.7419 64.2376 24.9499C64.4456 25.158 64.5625 25.4402 64.5625 25.7344V37.9375Z" fill="black"/>
<path d="M55.6875 6.87497C56.9991 6.87191 58.2983 7.12887 59.5099 7.63101C60.7215 8.13314 61.8216 8.87048 62.7465 9.80039L64.3152 8.23173C63.1825 7.09817 61.8375 6.19892 60.3572 5.58539C58.8768 4.97186 57.29 4.65607 55.6875 4.65607C54.0851 4.65607 52.4983 4.97186 51.0179 5.58539C49.5376 6.19892 48.1926 7.09817 47.0599 8.23173L48.6286 9.80039C49.5535 8.87048 50.6536 8.13314 51.8652 7.63101C53.0768 7.12887 54.376 6.87191 55.6875 6.87497V6.87497Z" fill="black"/>
<path d="M61.179 11.3746C60.4588 10.6517 59.603 10.0781 58.6607 9.68674C57.7183 9.29535 56.708 9.09387 55.6876 9.09387C54.6672 9.09387 53.6568 9.29535 52.7145 9.68674C51.7721 10.0781 50.9163 10.6517 50.1962 11.3746L51.7715 12.9366C52.2854 12.4218 52.8959 12.0134 53.5678 11.7347C54.2398 11.4561 54.9601 11.3126 55.6876 11.3126C56.415 11.3126 57.1354 11.4561 57.8073 11.7347C58.4793 12.0134 59.0897 12.4218 59.6037 12.9366L61.179 11.3746Z" fill="black"/>
<path d="M53.329 14.5208L54.9176 16.0739C55.1244 15.8747 55.4003 15.7633 55.6875 15.7633C55.9747 15.7633 56.2507 15.8747 56.4574 16.0739L58.046 14.5208C57.4143 13.9071 56.5683 13.5638 55.6875 13.5638C54.8068 13.5638 53.9607 13.9071 53.329 14.5208V14.5208Z" fill="black"/>
</svg>
