<svg width="30" height="30" viewBox="0 0 30 30" fill="none" xmlns="http://www.w3.org/2000/svg">
<path fill-rule="evenodd" clip-rule="evenodd" d="M0 15C0 6.72 6.72 0 15 0C23.28 0 30 6.72 30 15C30 23.28 23.28 30 15 30C6.72 30 0 23.28 0 15ZM5.55001 16.05L10.935 21.435C11.52 22.02 12.48 22.02 13.05 21.435L24.435 10.05C25.02 9.46503 25.02 8.52003 24.435 7.93503C23.85 7.35003 22.905 7.35003 22.32 7.93503L12 18.255L7.66501 13.935C7.08001 13.35 6.13501 13.35 5.55001 13.935C5.26913 14.2153 5.11128 14.5958 5.11128 14.9925C5.11128 15.3893 5.26913 15.7698 5.55001 16.05Z" fill="#F58634"/>
</svg>
