<?xml version="1.0" encoding="utf-8"?>
<!-- Generator: Adobe Illustrator 19.0.0, SVG Export Plug-In . SVG Version: 6.00 Build 0)  -->
<svg version="1.1" id="Layer_1" xmlns="http://www.w3.org/2000/svg" xmlns:xlink="http://www.w3.org/1999/xlink" x="0px" y="0px"
	 viewBox="-324 125 311 311" style="enable-background:new -324 125 311 311;" xml:space="preserve">
<style type="text/css">
	.st0{fill:#FFFFFF;}
</style>
<path class="st0" d="M-307.9,436c-4.1,0-8.2-1.6-11.3-4.7c-6.2-6.2-6.2-16.4,0-22.6l279-279c6.2-6.2,16.4-6.2,22.6,0
	c6.2,6.2,6.2,16.4,0,22.6l-279,279C-299.7,434.4-303.8,436-307.9,436z"/>
<path class="st0" d="M-28.9,436c-4.1,0-8.2-1.6-11.3-4.7l-279-279c-6.2-6.3-6.2-16.4,0-22.6c6.2-6.2,16.4-6.2,22.6,0l279,279
	c6.2,6.2,6.2,16.4,0,22.6C-20.8,434.4-24.8,436-28.9,436z"/>
</svg>
